<svg width="1545" height="2196" viewBox="0 0 1545 2196" fill="none" xmlns="http://www.w3.org/2000/svg">
<path d="M777.409 2019.06C549.534 1869.13 486.409 1053.06 486.409 1053.06C479.847 906.627 499.85 634.814 568.662 566.002C714.787 419.939 943.35 485.814 943.35 485.814C1145.22 548.002 1084.6 713.064 1084.6 713.064C1047.04 784.189 1000.47 820.252 946.162 820.252C845.975 820.252 747.662 703.377 746.475 702.377C715.912 678.127 705.162 714.627 705.162 714.627C704.725 718.314 664.288 1085.13 940.85 1172.81C940.85 1172.81 1241.54 1265.31 1456.1 946.689C1458.1 943.752 1655.47 647.127 1452.35 339.939C1275.66 72.8144 1045.29 -33.7481 738.1 9.37693C298.537 71.4394 0.90918 512.877 0.90918 981.065C0.90918 981.065 62.1618 1852.06 166.409 2195.06C166.409 2195.06 439.097 2148.94 542.409 2064.06C542.409 2064.06 622.784 2065.94 777.409 2019.06Z" fill="#4C3BCF"/>
<path opacity="0.3" d="M1528.35 767.627C1509.6 331.439 1147.72 152.002 1147.72 152.002C551.475 -100.498 192.1 482.627 192.1 482.627C18.9746 783.252 157.725 1998.44 192.1 2181.56C43.4092 2059.06 3.34961 895.752 3.34961 895.752C3.34961 427.627 298.35 71.3768 738.349 9.50182C1045.22 -33.5607 1275.85 72.6268 1452.1 340.127C1556.47 498.252 1555.22 653.877 1528.35 767.627Z" fill="white"/>
<path opacity="0.2" d="M1032.1 864.502C793.349 895.064 735.849 756.377 722.099 695.127C728.349 693.252 736.474 694.439 746.474 702.564C747.724 703.252 845.849 820.127 946.474 820.127C1000.22 820.127 1047.1 784.502 1084.6 713.189C1084.6 713.189 1145.22 548.189 943.349 485.689C943.349 485.689 714.599 420.064 568.974 566.314C499.599 635.064 470.849 746.315 477.099 892.565C477.099 892.565 596.409 1881.06 643.909 2011.06C126.409 647.564 558.974 465.627 558.974 465.627C910.409 215.565 1132.1 519.377 1132.1 519.377C1282.1 778.252 1032.1 864.502 1032.1 864.502Z" fill="#4B70F5"/>
<path opacity="0.3" d="M1513.97 820.127C1488.97 897.564 1457.1 945.752 1455.85 946.939C1241.47 1265.06 940.85 1172.56 940.85 1172.56C750.225 1111.94 710.225 919.439 703.975 803.814C757.725 1017.44 1155.66 1370.88 1513.97 820.127Z" fill="white"/>
<path d="M338.409 1755.06L224.409 1618.56L418.409 1510.06L452.409 1618.56L418.409 1755.06H338.409Z" fill="white"/>
<path d="M1338.33 861.255L1273.19 783.255L1384.05 721.255L1403.47 783.255L1384.05 861.255H1338.33Z" fill="white"/>
<path d="M553.975 365.255V194.255L679.475 137.255L719.475 285.755L656.475 393.755L553.975 365.255Z" fill="white"/>
<path d="M1061.51 417.59L1140.33 265.839L1277.98 273.102L1245.03 423.323L1139.34 490.128L1061.51 417.59Z" fill="white"/>
<path d="M238.452 889.255L180.812 820.154L272.834 739.255L330.474 858.581L299.8 889.255H238.452Z" fill="white"/>
<path d="M970.692 995.401L960.435 936.294L1040.53 920.245L1034.05 1008.35L1006.12 1015.84L970.692 995.401Z" fill="white"/>
</svg>
