<svg width="1543" height="2195" viewBox="0 0 1543 2195" fill="none" xmlns="http://www.w3.org/2000/svg">
<path d="M766.533 2018.97C994.372 1869.04 1057.49 1052.97 1057.49 1052.97C1064.05 906.536 1044.05 634.724 975.247 565.911C829.145 419.849 600.619 485.723 600.619 485.723C398.776 547.911 459.391 712.974 459.391 712.974C496.948 784.099 543.503 820.161 597.807 820.161C697.978 820.161 796.275 703.286 797.463 702.286C828.02 678.036 838.769 714.536 838.769 714.536C839.206 718.224 879.637 1085.04 603.118 1172.72C603.118 1172.72 302.479 1265.22 87.9507 946.598C85.951 943.661 -111.392 647.036 91.7002 339.848C268.359 72.7235 498.698 -33.839 805.836 9.28599C1245.33 71.3485 1542.91 512.786 1542.91 980.974C1542.91 980.974 1481.67 1851.97 1377.44 2194.97C1377.44 2194.97 1104.79 2148.85 1001.5 2063.97C1001.5 2063.97 921.133 2065.85 766.533 2018.97Z" fill="#4C3BCF"/>
<path opacity="0.3" d="M15.7123 767.536C34.4593 331.349 396.276 151.911 396.276 151.911C992.431 -100.589 1351.75 482.536 1351.75 482.536C1524.85 783.161 1386.12 1998.35 1351.75 2181.47C1500.42 2058.97 1540.47 895.661 1540.47 895.661C1540.47 427.536 1245.52 71.286 805.586 9.411C498.76 -33.6515 268.172 72.536 91.9501 340.036C-12.4082 498.161 -11.1584 653.786 15.7123 767.536Z" fill="white"/>
<path opacity="0.2" d="M511.885 864.411C750.596 894.974 808.087 756.286 821.835 695.036C815.586 693.161 807.462 694.349 797.464 702.474C796.214 703.161 698.105 820.036 597.496 820.036C543.754 820.036 496.887 784.411 459.393 713.099C459.393 713.099 398.778 548.099 600.62 485.599C600.62 485.599 829.333 419.974 974.935 566.224C1044.3 634.974 1073.04 746.224 1066.8 892.474C1066.8 892.474 947.505 1880.97 900.013 2010.97C1417.43 647.474 984.934 465.536 984.934 465.536C633.555 215.474 411.9 519.286 411.9 519.286C261.924 778.161 511.885 864.411 511.885 864.411Z" fill="#4B70F5"/>
<path opacity="0.3" d="M30.0853 820.036C55.0813 897.473 86.9513 945.661 88.2011 946.849C302.542 1264.97 603.119 1172.47 603.119 1172.47C793.713 1111.85 833.707 919.349 839.956 803.724C786.215 1017.35 388.341 1370.79 30.0853 820.036Z" fill="white"/>
<path d="M1205.46 1754.97L1319.45 1618.47L1125.48 1509.97L1091.48 1618.47L1125.48 1754.97H1205.46Z" fill="white"/>
<path d="M205.701 861.164L270.833 783.164L159.994 721.164L140.568 783.164L159.994 861.164H205.701Z" fill="white"/>
<path d="M989.932 365.164V194.164L864.452 137.164L824.458 285.664L887.448 393.664L989.932 365.164Z" fill="white"/>
<path d="M482.476 417.5L403.669 265.748L266.045 273.011L298.991 423.233L404.663 490.037L482.476 417.5Z" fill="white"/>
<path d="M1305.4 889.164L1363.04 820.063L1271.03 739.164L1213.4 858.49L1244.07 889.164H1305.4Z" fill="white"/>
<path d="M573.281 995.31L583.537 936.203L503.457 920.154L509.935 1008.26L537.863 1015.75L573.281 995.31Z" fill="white"/>
</svg>
