<svg width="2196" height="1544" viewBox="0 0 2196 1544" fill="none" xmlns="http://www.w3.org/2000/svg">
<path d="M2019.81 767.065C1869.87 994.94 1053.81 1058.06 1053.81 1058.06C907.372 1064.63 635.559 1044.62 566.747 975.812C420.684 829.687 486.559 601.124 486.559 601.124C548.747 399.249 713.809 459.874 713.809 459.874C784.934 497.437 820.997 543.999 820.997 598.312C820.997 698.499 704.122 796.812 703.122 797.999C678.872 828.562 715.372 839.312 715.372 839.312C719.059 839.749 1085.87 880.187 1173.56 603.624C1173.56 603.624 1266.06 302.937 947.434 88.3741C944.497 86.3741 647.872 -111.001 340.684 92.1243C73.5594 268.812 -33.0031 499.187 10.1219 806.374C72.1844 1245.94 513.622 1543.56 981.81 1543.56C981.81 1543.56 1852.81 1482.31 2195.81 1378.06C2195.81 1378.06 2149.68 1105.38 2064.81 1002.06C2064.81 1002.06 2066.68 921.69 2019.81 767.065Z" fill="#4C3BCF"/>
<path opacity="0.3" d="M768.372 16.1246C332.184 34.8746 152.746 396.75 152.746 396.75C-99.7536 992.999 483.371 1352.37 483.371 1352.37C783.996 1525.5 1999.18 1386.75 2182.31 1352.37C2059.81 1501.06 896.497 1541.12 896.497 1541.12C428.372 1541.12 72.1215 1246.12 10.2465 806.125C-32.8161 499.25 73.3714 268.625 340.871 92.3746C498.996 -12.0004 654.622 -10.7504 768.372 16.1246Z" fill="white"/>
<path opacity="0.2" d="M865.247 512.375C895.809 751.125 757.122 808.625 695.872 822.375C693.997 816.125 695.184 807.999 703.309 797.999C703.997 796.749 820.872 698.625 820.872 598C820.872 544.25 785.247 497.375 713.934 459.875C713.934 459.875 548.934 399.25 486.434 601.125C486.434 601.125 420.809 829.874 567.059 975.499C635.809 1044.87 747.059 1073.62 893.309 1067.37C893.309 1067.37 1881.81 948.065 2011.81 900.565C648.309 1418.06 466.372 985.499 466.372 985.499C216.309 634.064 520.122 412.375 520.122 412.375C778.997 262.375 865.247 512.375 865.247 512.375Z" fill="#4B70F5"/>
<path opacity="0.3" d="M820.872 30.4993C898.31 55.4993 946.497 87.3743 947.685 88.6243C1265.81 302.999 1173.31 603.624 1173.31 603.624C1112.68 794.249 920.185 834.249 804.56 840.499C1018.18 786.749 1371.62 388.812 820.872 30.4993Z" fill="white"/>
<path d="M1755.81 1206.06L1619.31 1320.06L1510.81 1126.06L1619.31 1092.06L1755.81 1126.06V1206.06Z" fill="white"/>
<path d="M862 206.143L784 271.286L722 160.428L784 141L862 160.428V206.143Z" fill="white"/>
<path d="M366 990.5H195L138 865L286.5 825L394.5 888L366 990.5Z" fill="white"/>
<path d="M418.335 482.963L266.584 404.144L273.847 266.498L424.068 299.448L490.872 405.137L418.335 482.963Z" fill="white"/>
<path d="M890 1306.02L820.899 1363.66L740 1271.64L859.326 1214L890 1244.67V1306.02Z" fill="white"/>
<path d="M996.146 573.782L937.039 584.039L920.99 503.947L1009.1 510.426L1016.59 538.359L996.146 573.782Z" fill="white"/>
</svg>
