<svg width="2000" height="1407" viewBox="0 0 2000 1407" fill="none" xmlns="http://www.w3.org/2000/svg">
<path d="M160.366 707.526C296.985 499.892 1040.56 442.374 1040.56 442.374C1173.99 436.395 1421.66 454.621 1484.36 517.321C1617.45 650.466 1557.42 858.726 1557.42 858.726C1500.76 1042.67 1350.36 987.429 1350.36 987.429C1285.55 953.203 1252.69 910.777 1252.69 861.289C1252.69 770.001 1359.18 680.421 1360.1 679.339C1382.19 651.491 1348.93 641.696 1348.93 641.696C1345.57 641.297 1011.34 604.452 931.446 856.448C931.446 856.448 847.163 1130.43 1137.49 1325.93C1140.16 1327.75 1410.44 1507.59 1690.34 1322.51C1933.74 1161.52 2030.83 951.609 1991.54 671.708C1934.99 271.191 1532.76 0 1106.16 0C1106.16 0 312.532 55.8117 -2.5115e-05 150.799C-2.5115e-05 150.799 42.0278 399.264 119.364 493.4C119.364 493.4 117.655 566.635 160.366 707.526Z" fill="white"/>
<path opacity="0.3" d="M1300.64 1391.76C1698.08 1374.68 1861.58 1044.95 1861.58 1044.95C2091.65 501.661 1560.33 174.208 1560.33 174.208C1286.4 16.4612 179.159 142.886 12.3008 174.208C123.919 38.7253 1183.9 2.22412 1183.9 2.22412C1610.44 2.22412 1935.05 271.02 1991.42 671.936C2030.66 951.552 1933.91 1161.69 1690.17 1322.29C1546.09 1417.39 1404.29 1416.25 1300.64 1391.76Z" fill="#4C3BCF"/>
<path opacity="0.2" d="M1212.37 939.591C1184.52 722.049 1310.89 669.657 1366.7 657.128C1368.41 662.823 1367.33 670.226 1359.92 679.338C1359.3 680.477 1252.8 769.886 1252.8 861.572C1252.8 910.548 1285.26 953.259 1350.24 987.428C1350.24 987.428 1500.59 1042.67 1557.53 858.725C1557.53 858.725 1617.33 650.294 1484.07 517.605C1421.43 454.392 1320.06 428.196 1186.8 433.891C1186.8 433.891 286.107 542.602 167.654 585.883C1410.04 114.351 1575.81 508.493 1575.81 508.493C1803.66 828.711 1526.84 1030.71 1526.84 1030.71C1290.96 1167.38 1212.37 939.591 1212.37 939.591Z" fill="#4B70F5"/>
<path opacity="0.3" d="M1252.81 1378.67C1182.25 1355.89 1138.34 1326.84 1137.26 1325.7C847.392 1130.37 931.676 856.449 931.676 856.449C986.916 682.757 1162.32 646.31 1267.67 640.615C1073.02 689.591 750.979 1052.18 1252.81 1378.67Z" fill="#4C3BCF"/>
<path d="M400.918 307.521L525.293 203.647L624.155 380.415L525.293 411.395L400.918 380.415V307.521Z" fill="#4C3BCF"/>
<path d="M1709.36 872.579L1780.43 813.223L1836.92 914.233L1780.43 931.935L1709.36 914.233V872.579Z" fill="#4C3BCF"/>
<path d="M1007.3 157.178H1163.11L1215.05 271.53L1079.74 307.977L981.333 250.573L1007.3 157.178Z" fill="#4C3BCF"/>
<path d="M1308.06 1113.12L1446.33 1184.94L1439.71 1310.36L1302.84 1280.34L1241.97 1184.03L1308.06 1113.12Z" fill="#4C3BCF"/>
<path d="M1572.69 360.042L1635.65 307.522L1709.36 391.37L1600.64 443.891L1572.69 415.941V360.042Z" fill="#4C3BCF"/>
<path d="M1093.1 883.639L1146.96 874.293L1161.58 947.271L1081.3 941.368L1074.47 915.916L1093.1 883.639Z" fill="#4C3BCF"/>
</svg>
