<svg width="2195" height="1544" viewBox="0 0 2195 1544" fill="none" xmlns="http://www.w3.org/2000/svg">
<path d="M176 777C325.938 549.125 1142 486 1142 486C1288.44 479.438 1560.25 499.44 1629.06 568.253C1775.13 714.378 1709.25 942.941 1709.25 942.941C1647.06 1144.82 1482 1084.19 1482 1084.19C1410.88 1046.63 1374.81 1000.07 1374.81 945.753C1374.81 845.566 1491.69 747.253 1492.69 746.066C1516.94 715.503 1480.44 704.753 1480.44 704.753C1476.75 704.315 1109.94 663.878 1022.25 940.441C1022.25 940.441 929.75 1241.13 1248.38 1455.69C1251.31 1457.69 1547.94 1655.07 1855.13 1451.94C2122.25 1275.25 2228.81 1044.88 2185.69 737.69C2123.63 298.128 1682.19 0.5 1214 0.5C1214 0.5 343 61.7526 0 166C0 166 46.125 438.688 131 542C131 542 129.125 622.375 176 777Z" fill="#4C3BCF"/>
<path opacity="0.3" d="M1427.44 1527.94C1863.63 1509.19 2043.06 1147.32 2043.06 1147.32C2295.56 551.065 1712.44 191.69 1712.44 191.69C1411.81 18.5654 196.625 157.315 13.5 191.69C136 43 1299.31 2.94043 1299.31 2.94043C1767.44 2.94043 2123.69 297.94 2185.56 737.94C2228.63 1044.82 2122.44 1275.44 1854.94 1451.69C1696.81 1556.07 1541.19 1554.82 1427.44 1527.94Z" fill="white"/>
<path opacity="0.2" d="M1330.56 1031.69C1300 792.94 1438.69 735.44 1499.94 721.69C1501.81 727.94 1500.63 736.066 1492.5 746.066C1491.81 747.316 1374.94 845.44 1374.94 946.065C1374.94 999.815 1410.56 1046.69 1481.88 1084.19C1481.88 1084.19 1646.87 1144.82 1709.37 942.94C1709.37 942.94 1775 714.191 1628.75 568.566C1560 499.191 1448.75 470.44 1302.5 476.69C1302.5 476.69 314 596 184 643.5C1547.5 126 1729.44 558.566 1729.44 558.566C1979.5 910.001 1675.69 1131.69 1675.69 1131.69C1416.81 1281.69 1330.56 1031.69 1330.56 1031.69Z" fill="#4B70F5"/>
<path opacity="0.3" d="M1374.94 1513.57C1297.5 1488.57 1249.31 1456.69 1248.12 1455.44C930 1241.07 1022.5 940.441 1022.5 940.441C1083.13 749.816 1275.62 709.816 1391.25 703.566C1177.63 757.316 824.188 1155.25 1374.94 1513.57Z" fill="white"/>
<path d="M440 338L576.5 224L685 418L576.5 452L440 418V338Z" fill="white"/>
<path d="M1876 958.143L1954 893L2016 1003.86L1954 1023.29L1876 1003.86V958.143Z" fill="white"/>
<path d="M1105.5 173H1276.5L1333.5 298.5L1185 338.5L1077 275.5L1105.5 173Z" fill="white"/>
<path d="M1435.58 1222.14L1587.33 1300.96L1580.06 1438.6L1429.84 1405.65L1363.04 1299.96L1435.58 1222.14Z" fill="white"/>
<path d="M1726 395.64L1795.1 338L1876 430.022L1756.67 487.663L1726 456.989V395.64Z" fill="white"/>
<path d="M1199.66 970.283L1258.77 960.026L1274.82 1040.12L1186.71 1033.64L1179.22 1005.71L1199.66 970.283Z" fill="white"/>
</svg>
