<svg width="500" height="390" viewBox="0 0 500 390" fill="none" xmlns="http://www.w3.org/2000/svg">
<g filter="url(#filter0_d_1289_12)">
<rect x="352" y="144" width="112.588" height="101.912" rx="12.6054" fill="#FBFBFB"/>
</g>
<path d="M396.337 163.202C398.948 163.202 400.475 164.691 400.475 167.365C400.475 170.04 398.948 171.529 396.337 171.529H393.397V163.202H396.337ZM396.337 170.381C398.09 170.381 399.062 169.283 399.062 167.365C399.062 165.448 398.09 164.35 396.337 164.35H394.747V170.381H396.337ZM407.929 168.186C407.929 168.425 407.904 168.716 407.878 168.88H403.26C403.412 169.99 404.068 170.583 405.09 170.583C405.923 170.583 406.478 170.28 406.68 169.725L407.803 170.192C407.348 171.126 406.478 171.655 405.09 171.655C403.096 171.655 401.923 170.432 401.923 168.375C401.923 166.318 403.033 165.094 405.001 165.094C406.894 165.094 407.929 166.356 407.929 168.186ZM405.001 166.167C404.005 166.167 403.412 166.76 403.273 167.845H406.667C406.541 166.785 405.948 166.167 405.001 166.167ZM413.002 165.094C414.718 165.094 415.803 166.318 415.803 168.388C415.803 170.444 414.73 171.655 413.014 171.655C412.005 171.655 411.235 171.138 410.869 170.368L410.806 171.529H409.62V162.382H410.97V166.243C411.349 165.549 412.068 165.094 413.002 165.094ZM412.712 170.57C413.797 170.57 414.453 169.75 414.453 168.375C414.453 167 413.797 166.192 412.712 166.192C411.652 166.192 410.97 166.987 410.97 168.299V168.451C410.97 169.775 411.652 170.57 412.712 170.57ZM423.196 168.186C423.196 168.425 423.17 168.716 423.145 168.88H418.527C418.679 169.99 419.335 170.583 420.357 170.583C421.189 170.583 421.745 170.28 421.946 169.725L423.069 170.192C422.615 171.126 421.745 171.655 420.357 171.655C418.363 171.655 417.19 170.432 417.19 168.375C417.19 166.318 418.3 165.094 420.268 165.094C422.161 165.094 423.196 166.356 423.196 168.186ZM420.268 166.167C419.272 166.167 418.679 166.76 418.54 167.845H421.934C421.808 166.785 421.215 166.167 420.268 166.167Z" fill="#00A692"/>
<rect x="369" y="189" width="53.1735" height="7.1742" rx="3.5871" fill="#00C7AF"/>
<rect x="369" y="222" width="53.1735" height="7.1742" rx="3.5871" fill="#00C7AF"/>
<rect x="369" y="206" width="80" height="7" rx="3.5" fill="#00C7AF"/>
<g filter="url(#filter1_d_1289_12)">
<rect x="352" y="24" width="112.588" height="101.912" rx="12.6054" fill="#FBFBFB"/>
</g>
<path d="M394.72 39.5462C396.259 39.5462 397.319 40.1014 398.051 41.2369L397.029 42.158C396.562 41.1612 395.919 40.7196 394.733 40.7196C393.547 40.7196 392.903 41.2496 392.903 41.9561C392.903 42.6249 393.42 42.9782 395.036 43.2684C397.269 43.6595 398.089 44.3535 398.089 45.691C398.089 47.1799 396.739 48.1262 394.771 48.1262C392.954 48.1262 391.831 47.4701 391.187 46.4354L392.133 45.4891C392.676 46.4985 393.509 46.9527 394.758 46.9527C395.944 46.9527 396.676 46.5364 396.676 45.7667C396.676 45.1736 396.171 44.833 394.607 44.5428C392.323 44.1138 391.477 43.4198 391.477 42.0949C391.477 40.6818 392.689 39.5462 394.72 39.5462ZM405.14 47.1168C405.304 47.1168 405.468 47.1041 405.606 47.0663L405.518 47.9748C405.316 48.0631 405.051 48.1262 404.736 48.1262C404.054 48.1262 403.588 47.8738 403.449 47.1799C403.058 47.7855 402.25 48.1262 401.316 48.1262C400.13 48.1262 399.26 47.571 399.26 46.4733C399.26 45.5017 400.067 44.7825 401.72 44.4923L403.323 44.2021V43.874C403.323 43.117 402.856 42.6249 402.036 42.6249C401.253 42.6249 400.673 42.9656 400.408 43.7605L399.361 43.2053C399.664 42.2085 400.635 41.565 402.01 41.565C403.588 41.565 404.673 42.2842 404.673 43.7983V46.6499C404.673 46.9654 404.799 47.1168 405.14 47.1168ZM401.607 47.1041C402.452 47.1041 403.323 46.6625 403.323 45.9055V45.1484L401.947 45.426C401.089 45.59 400.66 45.8802 400.66 46.3849C400.66 46.8518 401.014 47.1041 401.607 47.1041ZM408.197 38.8522V46.1578C408.197 46.7761 408.348 46.9906 408.853 46.9906C409.169 46.9906 409.358 46.9527 409.686 46.8266L409.534 47.9117C409.257 48.0505 408.853 48.1262 408.487 48.1262C407.364 48.1262 406.847 47.571 406.847 46.3471V38.8522H408.197ZM415.307 38.8522H416.657V48H415.471L415.396 46.8644C415.03 47.6089 414.26 48.1262 413.263 48.1262C411.547 48.1262 410.475 46.9149 410.475 44.8582C410.475 42.7889 411.56 41.565 413.276 41.565C414.21 41.565 414.929 42.0192 415.307 42.7132V38.8522ZM413.566 47.0411C414.626 47.0411 415.307 46.2461 415.307 44.9213V44.7699C415.307 43.4576 414.626 42.6627 413.566 42.6627C412.481 42.6627 411.825 43.4703 411.825 44.8456C411.825 46.2209 412.481 47.0411 413.566 47.0411ZM421.527 41.565C423.495 41.565 424.668 42.7889 424.668 44.8456C424.668 46.9023 423.495 48.1262 421.527 48.1262C419.558 48.1262 418.385 46.9023 418.385 44.8456C418.385 42.7889 419.558 41.565 421.527 41.565ZM421.527 42.6249C420.391 42.6249 419.748 43.4198 419.748 44.8456C419.748 46.2714 420.391 47.0663 421.527 47.0663C422.662 47.0663 423.318 46.2714 423.318 44.8456C423.318 43.4198 422.662 42.6249 421.527 42.6249ZM376.417 63.1262C375.193 63.1262 374.133 62.7224 373.603 61.8013L374.512 61.019C374.84 61.7761 375.584 62.0663 376.467 62.0663C377.363 62.0663 377.817 61.7382 377.817 61.3092C377.817 60.9181 377.452 60.691 376.354 60.4765C374.474 60.1232 373.818 59.5806 373.818 58.5207C373.818 57.4987 374.777 56.565 376.467 56.565C377.868 56.565 378.663 57.0192 379.117 57.9908L378.158 58.6974C377.843 57.9403 377.3 57.6249 376.48 57.6249C375.698 57.6249 375.168 58.0034 375.168 58.3946C375.168 58.8488 375.534 59.0885 376.72 59.303C378.524 59.6311 379.168 60.1736 379.168 61.2209C379.168 62.3313 378.158 63.1262 376.417 63.1262ZM381.493 55.6313C380.913 55.6313 380.584 55.3159 380.584 54.7859C380.584 54.256 380.913 53.9531 381.493 53.9531C382.073 53.9531 382.389 54.256 382.389 54.7859C382.389 55.3159 382.073 55.6313 381.493 55.6313ZM382.162 56.6912V63H380.812V56.6912H382.162ZM387.668 56.565C389.006 56.565 390.04 57.3347 390.04 58.9119V63H388.69V59.3409C388.69 58.0917 388.11 57.6754 387.34 57.6754C386.507 57.6754 385.624 58.2053 385.624 59.6563V63H384.274V56.6912H385.473L385.536 57.7511C385.965 56.9183 386.76 56.565 387.668 56.565ZM401.64 62.1168C401.804 62.1168 401.968 62.1041 402.107 62.0663L402.019 62.9748C401.817 63.0631 401.552 63.1262 401.236 63.1262C400.555 63.1262 400.088 62.8738 399.949 62.1799C399.558 62.7855 398.751 63.1262 397.817 63.1262C396.631 63.1262 395.76 62.571 395.76 61.4733C395.76 60.5017 396.568 59.7825 398.221 59.4923L399.823 59.2021V58.874C399.823 58.117 399.356 57.6249 398.536 57.6249C397.754 57.6249 397.174 57.9656 396.909 58.7605L395.861 58.2053C396.164 57.2085 397.136 56.565 398.511 56.565C400.088 56.565 401.173 57.2842 401.173 58.7983V61.6499C401.173 61.9654 401.299 62.1168 401.64 62.1168ZM398.107 62.1041C398.953 62.1041 399.823 61.6625 399.823 60.9055V60.1484L398.448 60.426C397.59 60.59 397.161 60.8802 397.161 61.3849C397.161 61.8518 397.514 62.1041 398.107 62.1041ZM406.641 56.565C406.893 56.565 407.158 56.6029 407.335 56.6912L407.12 57.9277C406.944 57.8268 406.666 57.7637 406.325 57.7637C405.568 57.7637 404.735 58.3693 404.735 59.6563V63H403.385V56.6912H404.534L404.66 57.8141C405 56.994 405.669 56.565 406.641 56.565ZM413.118 56.6912H414.304V65.6497H412.954V61.978C412.576 62.6719 411.856 63.1262 410.923 63.1262C409.207 63.1262 408.122 61.9023 408.122 59.833C408.122 57.7763 409.194 56.565 410.91 56.565C411.92 56.565 412.689 57.0823 413.055 57.852L413.118 56.6912ZM411.213 62.0284C412.273 62.0284 412.954 61.2335 412.954 59.9213V59.7699C412.954 58.445 412.273 57.6501 411.213 57.6501C410.128 57.6501 409.472 58.4703 409.472 59.8456C409.472 61.2209 410.128 62.0284 411.213 62.0284ZM420.763 56.6912H422.113V63H420.914L420.851 61.978C420.422 62.7729 419.64 63.1262 418.618 63.1262C417.356 63.1262 416.347 62.4827 416.347 60.8424V56.6912H417.697V60.4891C417.697 61.6625 418.202 62.0158 418.997 62.0158C419.955 62.0158 420.763 61.4354 420.763 60.0979V56.6912ZM429.849 59.6563C429.849 59.8961 429.824 60.1863 429.799 60.3503H425.181C425.332 61.4606 425.988 62.0537 427.011 62.0537C427.843 62.0537 428.398 61.7509 428.6 61.1957L429.723 61.6625C429.269 62.5962 428.398 63.1262 427.011 63.1262C425.017 63.1262 423.843 61.9023 423.843 59.8456C423.843 57.7889 424.954 56.565 426.922 56.565C428.815 56.565 429.849 57.8268 429.849 59.6563ZM426.922 57.6375C425.925 57.6375 425.332 58.2305 425.194 59.3156H428.588C428.462 58.2558 427.869 57.6375 426.922 57.6375ZM436.992 62.1168C437.156 62.1168 437.32 62.1041 437.459 62.0663L437.37 62.9748C437.168 63.0631 436.903 63.1262 436.588 63.1262C435.907 63.1262 435.44 62.8738 435.301 62.1799C434.91 62.7855 434.102 63.1262 433.169 63.1262C431.983 63.1262 431.112 62.571 431.112 61.4733C431.112 60.5017 431.919 59.7825 433.572 59.4923L435.175 59.2021V58.874C435.175 58.117 434.708 57.6249 433.888 57.6249C433.106 57.6249 432.525 57.9656 432.26 58.7605L431.213 58.2053C431.516 57.2085 432.487 56.565 433.863 56.565C435.44 56.565 436.525 57.2842 436.525 58.7983V61.6499C436.525 61.9654 436.651 62.1168 436.992 62.1168ZM433.459 62.1041C434.304 62.1041 435.175 61.6625 435.175 60.9055V60.1484L433.799 60.426C432.941 60.59 432.512 60.8802 432.512 61.3849C432.512 61.8518 432.866 62.1041 433.459 62.1041ZM441.992 56.565C442.245 56.565 442.51 56.6029 442.686 56.6912L442.472 57.9277C442.295 57.8268 442.018 57.7637 441.677 57.7637C440.92 57.7637 440.087 58.3693 440.087 59.6563V63H438.737V56.6912H439.885L440.011 57.8141C440.352 56.994 441.021 56.565 441.992 56.565Z" fill="#131313"/>
<rect x="369" y="102" width="53.1735" height="7.1742" rx="3.5871" fill="#FF2569"/>
<rect x="369" y="86" width="80" height="7" rx="3.5" fill="#FF2569"/>
<g filter="url(#filter2_d_1289_12)">
<rect x="352" y="264" width="112.588" height="101.912" rx="12.6054" fill="#FBFBFB"/>
</g>
<path d="M396.742 283.202H398.104V291.529H396.742V287.895H392.628V291.529H391.278V283.202H392.628V286.735H396.742V283.202ZM405.769 290.646C405.933 290.646 406.097 290.633 406.236 290.596L406.147 291.504C405.946 291.592 405.681 291.655 405.365 291.655C404.684 291.655 404.217 291.403 404.078 290.709C403.687 291.315 402.88 291.655 401.946 291.655C400.76 291.655 399.889 291.1 399.889 290.003C399.889 289.031 400.697 288.312 402.35 288.022L403.952 287.731V287.403C403.952 286.646 403.485 286.154 402.665 286.154C401.883 286.154 401.302 286.495 401.037 287.29L399.99 286.735C400.293 285.738 401.264 285.094 402.64 285.094C404.217 285.094 405.302 285.814 405.302 287.328V290.179C405.302 290.495 405.428 290.646 405.769 290.646ZM402.236 290.633C403.081 290.633 403.952 290.192 403.952 289.435V288.678L402.577 288.955C401.719 289.119 401.29 289.41 401.29 289.914C401.29 290.381 401.643 290.633 402.236 290.633ZM410.896 285.094C412.612 285.094 413.697 286.318 413.697 288.388C413.697 290.444 412.624 291.655 410.908 291.655C409.899 291.655 409.129 291.138 408.763 290.368L408.7 291.529H407.514V282.382H408.864V286.243C409.243 285.549 409.962 285.094 410.896 285.094ZM410.605 290.57C411.691 290.57 412.347 289.75 412.347 288.375C412.347 287 411.691 286.192 410.605 286.192C409.546 286.192 408.864 286.987 408.864 288.299V288.451C408.864 289.775 409.546 290.57 410.605 290.57ZM421.09 288.186C421.09 288.425 421.064 288.716 421.039 288.88H416.421C416.572 289.99 417.229 290.583 418.251 290.583C419.083 290.583 419.639 290.28 419.84 289.725L420.963 290.192C420.509 291.126 419.639 291.655 418.251 291.655C416.257 291.655 415.084 290.432 415.084 288.375C415.084 286.318 416.194 285.094 418.162 285.094C420.055 285.094 421.09 286.356 421.09 288.186ZM418.162 286.167C417.165 286.167 416.572 286.76 416.434 287.845H419.828C419.702 286.785 419.109 286.167 418.162 286.167ZM426.036 285.094C426.289 285.094 426.554 285.132 426.73 285.22L426.516 286.457C426.339 286.356 426.062 286.293 425.721 286.293C424.964 286.293 424.131 286.899 424.131 288.186V291.529H422.781V285.22H423.929L424.055 286.343C424.396 285.523 425.065 285.094 426.036 285.094Z" fill="#FF2569"/>
<rect x="369" y="309" width="53.1735" height="7.1742" rx="3.5871" fill="#FF2569"/>
<rect x="369" y="342" width="53.1735" height="7.1742" rx="3.5871" fill="#FF2569"/>
<rect x="369" y="326" width="80" height="7" rx="3.5" fill="#FF2569"/>
<g filter="url(#filter3_d_1289_12)">
<rect x="35" y="23" width="296.029" height="344.559" rx="11.6471" fill="#FBFBFB"/>
</g>
<path d="M35 34.6471C35 28.2146 40.2146 23 46.6471 23H319.382C325.815 23 331.029 28.2146 331.029 34.6471V68H35V34.6471Z" fill="#E9E9E9"/>
<path d="M92.24 48.296C92.016 48.8933 91.696 49.4107 91.28 49.848C90.864 50.2747 90.3733 50.6 89.808 50.824C89.2533 51.048 88.6453 51.16 87.984 51.16C86.9813 51.16 86.112 50.9413 85.376 50.504C84.6507 50.056 84.0853 49.4267 83.68 48.616C83.2853 47.8053 83.088 46.84 83.088 45.72C83.088 44.6 83.2853 43.6347 83.68 42.824C84.0853 42.0133 84.6507 41.3893 85.376 40.952C86.112 40.504 86.9707 40.28 87.952 40.28C88.6347 40.28 89.2427 40.376 89.776 40.568C90.3093 40.7493 90.7627 41.0267 91.136 41.4C91.52 41.7627 91.824 42.2107 92.048 42.744L90.784 43.336C90.5493 42.728 90.208 42.2693 89.76 41.96C89.3227 41.64 88.752 41.48 88.048 41.48C87.3333 41.48 86.704 41.6507 86.16 41.992C85.616 42.3227 85.1893 42.8027 84.88 43.432C84.5813 44.0613 84.432 44.824 84.432 45.72C84.432 46.6053 84.576 47.368 84.864 48.008C85.152 48.6373 85.5627 49.1227 86.096 49.464C86.6293 49.7947 87.2587 49.96 87.984 49.96C88.688 49.96 89.3013 49.784 89.824 49.432C90.3467 49.0693 90.7253 48.5307 90.96 47.816L92.24 48.296ZM99.1288 45.832C99.1288 45.2347 98.9688 44.776 98.6488 44.456C98.3288 44.1253 97.8754 43.96 97.2888 43.96C96.7341 43.96 96.2648 44.0827 95.8808 44.328C95.4968 44.5627 95.2141 44.9467 95.0328 45.48L93.9928 44.84C94.2061 44.2427 94.6008 43.7627 95.1768 43.4C95.7528 43.0267 96.4674 42.84 97.3208 42.84C97.8968 42.84 98.4194 42.9413 98.8888 43.144C99.3581 43.336 99.7261 43.6347 99.9928 44.04C100.27 44.4347 100.409 44.9467 100.409 45.576V49.448C100.409 49.832 100.611 50.024 101.017 50.024C101.219 50.024 101.417 49.9973 101.609 49.944L101.545 50.952C101.331 51.0587 101.054 51.112 100.713 51.112C100.403 51.112 100.126 51.0533 99.8808 50.936C99.6354 50.8187 99.4434 50.6427 99.3048 50.408C99.1661 50.1627 99.0968 49.8587 99.0968 49.496V49.336L99.4168 49.384C99.2888 49.8 99.0701 50.1413 98.7608 50.408C98.4514 50.664 98.1048 50.856 97.7208 50.984C97.3368 51.1013 96.9581 51.16 96.5848 51.16C96.1154 51.16 95.6781 51.08 95.2728 50.92C94.8674 50.76 94.5421 50.52 94.2968 50.2C94.0621 49.8693 93.9448 49.464 93.9448 48.984C93.9448 48.3867 94.1421 47.896 94.5368 47.512C94.9421 47.1173 95.5021 46.8507 96.2168 46.712L99.3848 46.088V47.144L96.8088 47.672C96.2861 47.7787 95.8968 47.928 95.6408 48.12C95.3848 48.312 95.2568 48.5787 95.2568 48.92C95.2568 49.2507 95.3848 49.5227 95.6408 49.736C95.9074 49.9387 96.2808 50.04 96.7608 50.04C97.0701 50.04 97.3634 50.0027 97.6408 49.928C97.9288 49.8427 98.1848 49.72 98.4088 49.56C98.6328 49.3893 98.8088 49.1813 98.9368 48.936C99.0648 48.68 99.1288 48.3813 99.1288 48.04V45.832ZM104.159 41.464C103.871 41.464 103.637 41.3787 103.455 41.208C103.285 41.0267 103.199 40.792 103.199 40.504C103.199 40.216 103.285 39.9867 103.455 39.816C103.637 39.6347 103.871 39.544 104.159 39.544C104.447 39.544 104.677 39.6347 104.847 39.816C105.029 39.9867 105.119 40.216 105.119 40.504C105.119 40.792 105.029 41.0267 104.847 41.208C104.677 41.3787 104.447 41.464 104.159 41.464ZM104.799 43V51.816C104.799 52.4773 104.671 53 104.415 53.384C104.159 53.768 103.845 54.04 103.471 54.2C103.098 54.36 102.73 54.44 102.367 54.44C102.037 54.44 101.733 54.3867 101.455 54.28C101.178 54.184 100.949 54.0613 100.767 53.912L101.039 52.696C101.189 52.8347 101.375 52.952 101.599 53.048C101.823 53.144 102.074 53.192 102.351 53.192C102.693 53.192 102.97 53.08 103.183 52.856C103.407 52.632 103.519 52.2427 103.519 51.688V43H104.799ZM112.441 45.832C112.441 45.2347 112.281 44.776 111.961 44.456C111.641 44.1253 111.188 43.96 110.601 43.96C110.047 43.96 109.577 44.0827 109.193 44.328C108.809 44.5627 108.527 44.9467 108.345 45.48L107.305 44.84C107.519 44.2427 107.913 43.7627 108.489 43.4C109.065 43.0267 109.78 42.84 110.633 42.84C111.209 42.84 111.732 42.9413 112.201 43.144C112.671 43.336 113.039 43.6347 113.305 44.04C113.583 44.4347 113.721 44.9467 113.721 45.576V49.448C113.721 49.832 113.924 50.024 114.329 50.024C114.532 50.024 114.729 49.9973 114.921 49.944L114.857 50.952C114.644 51.0587 114.367 51.112 114.025 51.112C113.716 51.112 113.439 51.0533 113.193 50.936C112.948 50.8187 112.756 50.6427 112.617 50.408C112.479 50.1627 112.409 49.8587 112.409 49.496V49.336L112.729 49.384C112.601 49.8 112.383 50.1413 112.073 50.408C111.764 50.664 111.417 50.856 111.033 50.984C110.649 51.1013 110.271 51.16 109.897 51.16C109.428 51.16 108.991 51.08 108.585 50.92C108.18 50.76 107.855 50.52 107.609 50.2C107.375 49.8693 107.257 49.464 107.257 48.984C107.257 48.3867 107.455 47.896 107.849 47.512C108.255 47.1173 108.815 46.8507 109.529 46.712L112.697 46.088V47.144L110.121 47.672C109.599 47.7787 109.209 47.928 108.953 48.12C108.697 48.312 108.569 48.5787 108.569 48.92C108.569 49.2507 108.697 49.5227 108.953 49.736C109.22 49.9387 109.593 50.04 110.073 50.04C110.383 50.04 110.676 50.0027 110.953 49.928C111.241 49.8427 111.497 49.72 111.721 49.56C111.945 49.3893 112.121 49.1813 112.249 48.936C112.377 48.68 112.441 48.3813 112.441 48.04V45.832Z" fill="#131313"/>
<g filter="url(#filter4_d_1289_12)">
<rect x="56" y="215" width="255" height="35" rx="17.5" fill="#00C7AF"/>
</g>
<path d="M170.148 237V227.76H173.788C174.899 227.76 175.711 227.984 176.224 228.432C176.738 228.88 176.994 229.501 176.994 230.294C176.994 230.779 176.854 231.213 176.574 231.596C176.294 231.969 175.884 232.207 175.342 232.31V232.324C175.94 232.417 176.402 232.665 176.728 233.066C177.064 233.458 177.232 233.915 177.232 234.438C177.232 235.231 176.943 235.857 176.364 236.314C175.786 236.771 174.946 237 173.844 237H170.148ZM171.618 235.754H173.914C174.502 235.754 174.941 235.633 175.23 235.39C175.529 235.147 175.678 234.807 175.678 234.368C175.678 233.929 175.529 233.589 175.23 233.346C174.941 233.103 174.502 232.982 173.914 232.982H171.618V235.754ZM171.618 231.736H173.676C174.852 231.736 175.44 231.283 175.44 230.378C175.44 229.473 174.852 229.02 173.676 229.02H171.618V231.736ZM181.7 237.14C181.243 237.14 180.818 237.056 180.426 236.888C180.043 236.72 179.735 236.449 179.502 236.076C179.269 235.703 179.152 235.217 179.152 234.62V230H180.65V234.242C180.65 234.877 180.785 235.315 181.056 235.558C181.327 235.791 181.705 235.908 182.19 235.908C182.423 235.908 182.647 235.871 182.862 235.796C183.086 235.712 183.287 235.586 183.464 235.418C183.641 235.241 183.777 235.017 183.87 234.746C183.973 234.475 184.024 234.158 184.024 233.794V230H185.522V237H184.206L184.136 235.866C183.893 236.305 183.567 236.627 183.156 236.832C182.745 237.037 182.26 237.14 181.7 237.14ZM190.522 237.14C189.822 237.14 189.183 237.005 188.604 236.734C188.026 236.463 187.568 236.081 187.232 235.586L188.268 234.69C188.474 235.073 188.768 235.381 189.15 235.614C189.542 235.838 190.009 235.95 190.55 235.95C190.98 235.95 191.32 235.875 191.572 235.726C191.824 235.577 191.95 235.367 191.95 235.096C191.95 234.919 191.89 234.765 191.768 234.634C191.656 234.494 191.437 234.387 191.11 234.312L189.64 234.004C188.894 233.855 188.362 233.617 188.044 233.29C187.727 232.954 187.568 232.529 187.568 232.016C187.568 231.633 187.68 231.279 187.904 230.952C188.128 230.625 188.455 230.364 188.884 230.168C189.323 229.963 189.846 229.86 190.452 229.86C191.152 229.86 191.75 229.986 192.244 230.238C192.739 230.481 193.117 230.831 193.378 231.288L192.342 232.156C192.165 231.783 191.904 231.507 191.558 231.33C191.213 231.143 190.854 231.05 190.48 231.05C190.182 231.05 189.925 231.087 189.71 231.162C189.496 231.237 189.332 231.339 189.22 231.47C189.108 231.601 189.052 231.755 189.052 231.932C189.052 232.119 189.122 232.282 189.262 232.422C189.402 232.562 189.654 232.669 190.018 232.744L191.614 233.08C192.286 233.211 192.758 233.435 193.028 233.752C193.308 234.06 193.448 234.438 193.448 234.886C193.448 235.334 193.332 235.731 193.098 236.076C192.865 236.412 192.529 236.673 192.09 236.86C191.652 237.047 191.129 237.14 190.522 237.14ZM198.283 229.86C198.843 229.86 199.319 229.944 199.711 230.112C200.112 230.271 200.448 230.499 200.719 230.798C200.989 231.097 201.195 231.437 201.335 231.82L199.921 232.38C199.799 231.951 199.603 231.624 199.333 231.4C199.071 231.167 198.726 231.05 198.297 231.05C197.877 231.05 197.517 231.148 197.219 231.344C196.92 231.531 196.691 231.806 196.533 232.17C196.383 232.534 196.309 232.982 196.309 233.514C196.309 234.037 196.388 234.48 196.547 234.844C196.705 235.208 196.934 235.483 197.233 235.67C197.531 235.857 197.886 235.95 198.297 235.95C198.614 235.95 198.889 235.899 199.123 235.796C199.356 235.684 199.547 235.53 199.697 235.334C199.855 235.129 199.963 234.881 200.019 234.592L201.377 235.054C201.246 235.474 201.041 235.843 200.761 236.16C200.49 236.468 200.149 236.711 199.739 236.888C199.328 237.056 198.857 237.14 198.325 237.14C197.634 237.14 197.023 236.995 196.491 236.706C195.959 236.417 195.543 236.001 195.245 235.46C194.955 234.909 194.811 234.256 194.811 233.5C194.811 232.744 194.955 232.095 195.245 231.554C195.543 231.003 195.954 230.583 196.477 230.294C197.009 230.005 197.611 229.86 198.283 229.86ZM207.166 232.506C207.166 232.039 207.035 231.68 206.774 231.428C206.522 231.167 206.172 231.036 205.724 231.036C205.304 231.036 204.945 231.134 204.646 231.33C204.347 231.526 204.128 231.843 203.988 232.282L202.728 231.75C202.905 231.181 203.251 230.723 203.764 230.378C204.287 230.033 204.959 229.86 205.78 229.86C206.34 229.86 206.835 229.953 207.264 230.14C207.693 230.317 208.029 230.588 208.272 230.952C208.524 231.316 208.65 231.783 208.65 232.352V235.474C208.65 235.819 208.823 235.992 209.168 235.992C209.336 235.992 209.499 235.969 209.658 235.922L209.574 236.958C209.359 237.061 209.089 237.112 208.762 237.112C208.463 237.112 208.193 237.061 207.95 236.958C207.717 236.846 207.53 236.683 207.39 236.468C207.259 236.244 207.194 235.969 207.194 235.642V235.544L207.502 235.53C207.418 235.894 207.245 236.197 206.984 236.44C206.723 236.673 206.419 236.851 206.074 236.972C205.729 237.084 205.379 237.14 205.024 237.14C204.585 237.14 204.189 237.07 203.834 236.93C203.489 236.79 203.213 236.58 203.008 236.3C202.812 236.011 202.714 235.656 202.714 235.236C202.714 234.713 202.882 234.284 203.218 233.948C203.563 233.612 204.049 233.383 204.674 233.262L207.39 232.73L207.376 233.78L205.402 234.186C205.01 234.261 204.716 234.368 204.52 234.508C204.324 234.648 204.226 234.853 204.226 235.124C204.226 235.385 204.324 235.595 204.52 235.754C204.725 235.903 204.996 235.978 205.332 235.978C205.565 235.978 205.789 235.95 206.004 235.894C206.228 235.838 206.429 235.749 206.606 235.628C206.783 235.497 206.919 235.334 207.012 235.138C207.115 234.933 207.166 234.69 207.166 234.41V232.506ZM211.104 237V230H212.378L212.518 231.26C212.705 230.803 212.98 230.457 213.344 230.224C213.718 229.981 214.175 229.86 214.716 229.86C214.856 229.86 214.996 229.874 215.136 229.902C215.276 229.921 215.393 229.953 215.486 230L215.276 231.316C215.174 231.279 215.057 231.251 214.926 231.232C214.805 231.204 214.637 231.19 214.422 231.19C214.133 231.19 213.848 231.269 213.568 231.428C213.288 231.577 213.055 231.806 212.868 232.114C212.691 232.422 212.602 232.814 212.602 233.29V237H211.104Z" fill="white"/>
<path d="M155.666 226C158.236 226 160.331 228.095 160.331 230.666C160.331 231.781 159.939 232.807 159.281 233.61L163 237.328L162.328 238L158.61 234.281C157.807 234.939 156.781 235.331 155.666 235.331C153.095 235.331 151 233.236 151 230.666C151 228.095 153.095 226 155.666 226ZM155.666 226.933C153.599 226.933 151.933 228.599 151.933 230.666C151.933 232.733 153.599 234.398 155.666 234.398C157.733 234.398 159.398 232.733 159.398 230.666C159.398 228.599 157.733 226.933 155.666 226.933Z" fill="white"/>
<g filter="url(#filter5_d_1289_12)">
<rect x="56" y="265" width="255" height="35" rx="17.5" fill="#6C63FF"/>
</g>
<path d="M112.909 276V281.455H107V282.545H112.909V288H114.091V282.545H120V281.455H114.091V276H112.909Z" fill="white"/>
<path d="M140.407 277.76V287H138.629L135.059 281.176L134.163 279.468H134.149L134.205 281.036V287H132.833V277.76H134.597L138.153 283.57L139.063 285.292H139.077L139.021 283.724V277.76H140.407ZM147.721 280H149.219V287H147.889L147.819 285.866C147.343 286.748 146.475 287.14 145.341 287.14C143.941 287.14 142.821 286.426 142.821 284.606V280H144.319V284.214C144.319 285.516 144.879 285.908 145.761 285.908C146.825 285.908 147.721 285.264 147.721 283.78V280ZM157.803 283.29C157.803 283.556 157.775 283.878 157.747 284.06H152.623C152.791 285.292 153.519 285.95 154.653 285.95C155.577 285.95 156.193 285.614 156.417 284.998L157.663 285.516C157.159 286.552 156.193 287.14 154.653 287.14C152.441 287.14 151.139 285.782 151.139 283.5C151.139 281.218 152.371 279.86 154.555 279.86C156.655 279.86 157.803 281.26 157.803 283.29ZM154.555 281.05C153.449 281.05 152.791 281.708 152.637 282.912H156.403C156.263 281.736 155.605 281.05 154.555 281.05ZM164.081 280H165.649L162.863 287H161.225L158.425 280H160.077L162.051 285.782L164.081 280ZM169.965 279.86C172.149 279.86 173.451 281.218 173.451 283.5C173.451 285.782 172.149 287.14 169.965 287.14C167.781 287.14 166.479 285.782 166.479 283.5C166.479 281.218 167.781 279.86 169.965 279.86ZM169.965 281.036C168.705 281.036 167.991 281.918 167.991 283.5C167.991 285.082 168.705 285.964 169.965 285.964C171.225 285.964 171.953 285.082 171.953 283.5C171.953 281.918 171.225 281.036 169.965 281.036ZM188.37 279.86C189.714 279.86 190.96 280.686 190.946 282.464V287H189.448V282.702C189.448 281.554 188.832 281.092 188.006 281.092C187.026 281.092 186.186 281.834 186.186 283.192V287H184.688V282.702C184.688 281.554 184.072 281.092 183.246 281.092C182.406 281.092 181.426 281.708 181.426 283.276V287H179.928V280H181.258L181.328 281.162C181.818 280.28 182.686 279.86 183.596 279.86C184.59 279.86 185.528 280.308 185.948 281.26C186.41 280.308 187.432 279.86 188.37 279.86ZM196.297 279.86C198.481 279.86 199.783 281.218 199.783 283.5C199.783 285.782 198.481 287.14 196.297 287.14C194.113 287.14 192.811 285.782 192.811 283.5C192.811 281.218 194.113 279.86 196.297 279.86ZM196.297 281.036C195.037 281.036 194.323 281.918 194.323 283.5C194.323 285.082 195.037 285.964 196.297 285.964C197.557 285.964 198.285 285.082 198.285 283.5C198.285 281.918 197.557 281.036 196.297 281.036ZM206.272 280H207.84L205.054 287H203.416L200.616 280H202.268L204.242 285.782L206.272 280ZM209.873 278.824C209.229 278.824 208.865 278.474 208.865 277.886C208.865 277.298 209.229 276.962 209.873 276.962C210.517 276.962 210.867 277.298 210.867 277.886C210.867 278.474 210.517 278.824 209.873 278.824ZM210.615 280V287H209.117V280H210.615ZM221.401 279.86C222.745 279.86 223.991 280.686 223.977 282.464V287H222.479V282.702C222.479 281.554 221.863 281.092 221.037 281.092C220.057 281.092 219.217 281.834 219.217 283.192V287H217.719V282.702C217.719 281.554 217.103 281.092 216.277 281.092C215.437 281.092 214.457 281.708 214.457 283.276V287H212.959V280H214.289L214.359 281.162C214.849 280.28 215.717 279.86 216.627 279.86C217.621 279.86 218.559 280.308 218.979 281.26C219.441 280.308 220.463 279.86 221.401 279.86ZM227.004 278.824C226.36 278.824 225.996 278.474 225.996 277.886C225.996 277.298 226.36 276.962 227.004 276.962C227.648 276.962 227.998 277.298 227.998 277.886C227.998 278.474 227.648 278.824 227.004 278.824ZM227.746 280V287H226.248V280H227.746ZM236.348 283.29C236.348 283.556 236.32 283.878 236.292 284.06H231.168C231.336 285.292 232.064 285.95 233.198 285.95C234.122 285.95 234.738 285.614 234.962 284.998L236.208 285.516C235.704 286.552 234.738 287.14 233.198 287.14C230.986 287.14 229.684 285.782 229.684 283.5C229.684 281.218 230.916 279.86 233.1 279.86C235.2 279.86 236.348 281.26 236.348 283.29ZM233.1 281.05C231.994 281.05 231.336 281.708 231.182 282.912H234.948C234.808 281.736 234.15 281.05 233.1 281.05ZM241.991 279.86C243.475 279.86 244.623 280.714 244.623 282.464V287H243.125V282.94C243.125 281.554 242.481 281.092 241.627 281.092C240.703 281.092 239.723 281.68 239.723 283.29V287H238.225V280H239.555L239.625 281.176C240.101 280.252 240.983 279.86 241.991 279.86ZM250.996 285.446L251.346 286.538C250.898 286.916 250.24 287.14 249.484 287.14C248.28 287.14 247.356 286.594 247.342 285.152V281.176H246.012V280H247.342V278.362L248.84 277.942V280H251.29V281.176H248.84V284.9C248.84 285.586 249.246 285.894 249.862 285.894C250.338 285.894 250.688 285.726 250.996 285.446ZM255.824 279.86C258.008 279.86 259.31 281.218 259.31 283.5C259.31 285.782 258.008 287.14 255.824 287.14C253.64 287.14 252.338 285.782 252.338 283.5C252.338 281.218 253.64 279.86 255.824 279.86ZM255.824 281.036C254.564 281.036 253.85 281.918 253.85 283.5C253.85 285.082 254.564 285.964 255.824 285.964C257.084 285.964 257.812 285.082 257.812 283.5C257.812 281.918 257.084 281.036 255.824 281.036Z" fill="white"/>
<g filter="url(#filter6_d_1289_12)">
<rect x="56" y="315" width="255" height="35" rx="17.5" fill="#00C7AF"/>
</g>
<path d="M165.941 337L165.073 334.578H161.181L160.299 337H158.759L162.245 327.76H164.037L167.523 337H165.941ZM161.615 333.36H164.625L163.561 330.392L163.141 329.062H163.099L162.707 330.364L161.615 333.36ZM172.564 329.86C172.844 329.86 173.138 329.902 173.334 330L173.096 331.372C172.9 331.26 172.592 331.19 172.214 331.19C171.374 331.19 170.45 331.862 170.45 333.29V337H168.952V330H170.226L170.366 331.246C170.744 330.336 171.486 329.86 172.564 329.86ZM179.751 330H181.067V339.94H179.569V335.866C179.149 336.636 178.351 337.14 177.315 337.14C175.411 337.14 174.207 335.782 174.207 333.486C174.207 331.204 175.397 329.86 177.301 329.86C178.421 329.86 179.275 330.434 179.681 331.288L179.751 330ZM177.637 335.922C178.813 335.922 179.569 335.04 179.569 333.584V333.416C179.569 331.946 178.813 331.064 177.637 331.064C176.433 331.064 175.705 331.974 175.705 333.5C175.705 335.026 176.433 335.922 177.637 335.922ZM188.234 330H189.732V337H188.402L188.332 335.866C187.856 336.748 186.988 337.14 185.854 337.14C184.454 337.14 183.334 336.426 183.334 334.606V330H184.832V334.214C184.832 335.516 185.392 335.908 186.274 335.908C187.338 335.908 188.234 335.264 188.234 333.78V330ZM198.316 333.29C198.316 333.556 198.288 333.878 198.26 334.06H193.136C193.304 335.292 194.032 335.95 195.166 335.95C196.09 335.95 196.706 335.614 196.93 334.998L198.176 335.516C197.672 336.552 196.706 337.14 195.166 337.14C192.954 337.14 191.652 335.782 191.652 333.5C191.652 331.218 192.884 329.86 195.068 329.86C197.168 329.86 198.316 331.26 198.316 333.29ZM195.068 331.05C193.962 331.05 193.304 331.708 193.15 332.912H196.916C196.776 331.736 196.118 331.05 195.068 331.05ZM203.272 329.86C205.456 329.86 206.758 331.218 206.758 333.5C206.758 335.782 205.456 337.14 203.272 337.14C201.088 337.14 199.786 335.782 199.786 333.5C199.786 331.218 201.088 329.86 203.272 329.86ZM203.272 331.036C202.012 331.036 201.298 331.918 201.298 333.5C201.298 335.082 202.012 335.964 203.272 335.964C204.532 335.964 205.26 335.082 205.26 333.5C205.26 331.918 204.532 331.036 203.272 331.036Z" fill="white"/>
<path d="M75.862 180.42V185.711C75.862 186.846 75.563 187.7 74.965 188.272C74.367 188.844 73.496 189.13 72.352 189.13C71.2253 189.13 70.3587 188.844 69.752 188.272C69.154 187.7 68.855 186.846 68.855 185.711V180.42H70.246V185.542C70.246 186.348 70.4193 186.946 70.766 187.336C71.1127 187.726 71.6413 187.921 72.352 187.921C73.0713 187.921 73.6043 187.726 73.951 187.336C74.2977 186.946 74.471 186.348 74.471 185.542V180.42H75.862ZM72.521 177.612H73.873L72.742 179.692H71.676L72.521 177.612ZM79.3343 179.575V187.18C79.3343 187.501 79.3907 187.722 79.5033 187.843C79.616 187.964 79.8023 188.025 80.0623 188.025C80.2183 188.025 80.3483 188.016 80.4523 187.999C80.565 187.973 80.7037 187.93 80.8683 187.869L80.7123 188.909C80.565 188.978 80.396 189.03 80.2053 189.065C80.0147 189.108 79.824 189.13 79.6333 189.13C79.0527 189.13 78.6237 188.983 78.3463 188.688C78.0777 188.385 77.9433 187.921 77.9433 187.297V179.575H79.3343ZM83.6889 180.589V187.05C83.6889 187.371 83.7712 187.605 83.9359 187.752C84.1092 187.899 84.3389 187.973 84.6249 187.973C84.8589 187.973 85.0626 187.938 85.2359 187.869C85.4092 187.791 85.5696 187.687 85.7169 187.557L86.0289 188.571C85.8296 188.744 85.5826 188.883 85.2879 188.987C85.0019 189.082 84.6812 189.13 84.3259 189.13C83.9532 189.13 83.6109 189.069 83.2989 188.948C82.9869 188.827 82.7442 188.632 82.5709 188.363C82.3976 188.086 82.3066 187.726 82.2979 187.284V180.979L83.6889 180.589ZM85.9249 182.5V183.592H81.0499V182.5H85.9249ZM88.0027 181.408C87.6993 181.408 87.4653 181.334 87.3007 181.187C87.1447 181.031 87.0667 180.814 87.0667 180.537C87.0667 180.26 87.1447 180.047 87.3007 179.9C87.4653 179.753 87.6993 179.679 88.0027 179.679C88.2973 179.679 88.5227 179.753 88.6787 179.9C88.8433 180.047 88.9257 180.26 88.9257 180.537C88.9257 180.814 88.8433 181.031 88.6787 181.187C88.5227 181.334 88.2973 181.408 88.0027 181.408ZM88.6917 182.5V189H87.3007V182.5H88.6917ZM90.8681 189V182.5H92.1031L92.1681 183.592C92.3934 183.176 92.6924 182.868 93.0651 182.669C93.4464 182.47 93.8494 182.37 94.2741 182.37C94.7421 182.37 95.1711 182.478 95.5611 182.695C95.9597 182.903 96.2587 183.219 96.4581 183.644C96.5967 183.358 96.7874 183.12 97.0301 182.929C97.2727 182.738 97.5414 182.6 97.8361 182.513C98.1307 182.418 98.4211 182.37 98.7071 182.37C99.1231 182.37 99.5131 182.457 99.8771 182.63C100.241 182.803 100.536 183.068 100.761 183.423C100.986 183.778 101.099 184.233 101.099 184.788V189H99.7081V185.009C99.7081 184.48 99.5824 184.099 99.3311 183.865C99.0797 183.631 98.7591 183.514 98.3691 183.514C98.0657 183.514 97.7841 183.588 97.5241 183.735C97.2727 183.882 97.0691 184.103 96.9131 184.398C96.7571 184.684 96.6791 185.039 96.6791 185.464V189H95.2881V185.009C95.2881 184.48 95.1624 184.099 94.9111 183.865C94.6597 183.631 94.3391 183.514 93.9491 183.514C93.6891 183.514 93.4291 183.583 93.1691 183.722C92.9091 183.861 92.6924 184.077 92.5191 184.372C92.3457 184.667 92.2591 185.057 92.2591 185.542V189H90.8681ZM106.029 182.37C106.662 182.37 107.221 182.504 107.706 182.773C108.191 183.042 108.568 183.432 108.837 183.943C109.114 184.446 109.253 185.048 109.253 185.75C109.253 186.452 109.114 187.059 108.837 187.57C108.568 188.073 108.191 188.458 107.706 188.727C107.221 188.996 106.662 189.13 106.029 189.13C105.396 189.13 104.837 188.996 104.352 188.727C103.867 188.458 103.485 188.073 103.208 187.57C102.931 187.059 102.792 186.452 102.792 185.75C102.792 185.048 102.931 184.446 103.208 183.943C103.485 183.432 103.867 183.042 104.352 182.773C104.837 182.504 105.396 182.37 106.029 182.37ZM106.029 183.462C105.639 183.462 105.305 183.553 105.028 183.735C104.759 183.908 104.551 184.164 104.404 184.502C104.257 184.84 104.183 185.256 104.183 185.75C104.183 186.235 104.257 186.651 104.404 186.998C104.551 187.336 104.759 187.596 105.028 187.778C105.305 187.951 105.639 188.038 106.029 188.038C106.419 188.038 106.748 187.951 107.017 187.778C107.286 187.596 107.494 187.336 107.641 186.998C107.788 186.651 107.862 186.235 107.862 185.75C107.862 185.256 107.788 184.84 107.641 184.502C107.494 184.164 107.286 183.908 107.017 183.735C106.748 183.553 106.419 183.462 106.029 183.462ZM113.473 189.13C112.823 189.13 112.229 189.004 111.692 188.753C111.154 188.502 110.73 188.146 110.418 187.687L111.38 186.855C111.57 187.21 111.843 187.496 112.199 187.713C112.563 187.921 112.996 188.025 113.499 188.025C113.897 188.025 114.214 187.956 114.448 187.817C114.682 187.678 114.799 187.483 114.799 187.232C114.799 187.067 114.742 186.924 114.63 186.803C114.526 186.673 114.322 186.573 114.019 186.504L112.654 186.218C111.96 186.079 111.466 185.858 111.172 185.555C110.877 185.243 110.73 184.849 110.73 184.372C110.73 184.017 110.834 183.687 111.042 183.384C111.25 183.081 111.553 182.838 111.952 182.656C112.359 182.465 112.844 182.37 113.408 182.37C114.058 182.37 114.612 182.487 115.072 182.721C115.531 182.946 115.882 183.271 116.125 183.696L115.163 184.502C114.998 184.155 114.755 183.9 114.435 183.735C114.114 183.562 113.78 183.475 113.434 183.475C113.156 183.475 112.918 183.51 112.719 183.579C112.519 183.648 112.368 183.744 112.264 183.865C112.16 183.986 112.108 184.129 112.108 184.294C112.108 184.467 112.173 184.619 112.303 184.749C112.433 184.879 112.667 184.979 113.005 185.048L114.487 185.36C115.111 185.481 115.548 185.689 115.8 185.984C116.06 186.27 116.19 186.621 116.19 187.037C116.19 187.453 116.081 187.821 115.865 188.142C115.648 188.454 115.336 188.697 114.929 188.87C114.521 189.043 114.036 189.13 113.473 189.13ZM124.841 189.13C124.035 189.13 123.333 188.952 122.735 188.597C122.146 188.233 121.743 187.726 121.526 187.076L122.878 186.439C122.956 186.751 123.078 187.02 123.242 187.245C123.407 187.47 123.624 187.644 123.892 187.765C124.161 187.878 124.495 187.934 124.893 187.934C125.231 187.934 125.517 187.873 125.751 187.752C125.985 187.631 126.163 187.462 126.284 187.245C126.414 187.028 126.479 186.781 126.479 186.504C126.479 186.218 126.423 185.98 126.31 185.789C126.206 185.598 126.037 185.46 125.803 185.373C125.578 185.286 125.288 185.243 124.932 185.243C124.828 185.243 124.72 185.247 124.607 185.256C124.503 185.256 124.391 185.265 124.269 185.282V184.112C124.347 184.121 124.421 184.129 124.49 184.138C124.568 184.138 124.642 184.138 124.711 184.138C125.275 184.138 125.678 184.025 125.92 183.8C126.163 183.575 126.284 183.224 126.284 182.747C126.284 182.34 126.159 182.028 125.907 181.811C125.665 181.594 125.314 181.486 124.854 181.486C124.378 181.486 124.005 181.599 123.736 181.824C123.476 182.041 123.277 182.357 123.138 182.773L121.864 182.24C121.986 181.841 122.189 181.495 122.475 181.2C122.761 180.905 123.112 180.68 123.528 180.524C123.953 180.359 124.417 180.277 124.919 180.277C125.535 180.277 126.046 180.377 126.453 180.576C126.869 180.775 127.177 181.048 127.376 181.395C127.584 181.742 127.688 182.127 127.688 182.552C127.688 182.881 127.641 183.172 127.545 183.423C127.45 183.666 127.32 183.878 127.155 184.06C126.999 184.233 126.826 184.368 126.635 184.463C126.453 184.558 126.267 184.623 126.076 184.658V184.684C126.328 184.693 126.557 184.745 126.765 184.84C126.982 184.927 127.173 185.052 127.337 185.217C127.511 185.373 127.645 185.564 127.74 185.789C127.836 186.014 127.883 186.261 127.883 186.53C127.883 187.05 127.753 187.505 127.493 187.895C127.233 188.285 126.874 188.588 126.414 188.805C125.964 189.022 125.439 189.13 124.841 189.13ZM132.731 189.13C131.7 189.13 130.89 188.757 130.3 188.012C129.72 187.258 129.429 186.157 129.429 184.71C129.429 183.263 129.72 182.166 130.3 181.421C130.89 180.667 131.7 180.29 132.731 180.29C133.771 180.29 134.582 180.667 135.162 181.421C135.752 182.166 136.046 183.263 136.046 184.71C136.046 186.157 135.752 187.258 135.162 188.012C134.582 188.757 133.771 189.13 132.731 189.13ZM132.731 187.947C133.147 187.947 133.494 187.83 133.771 187.596C134.057 187.353 134.27 186.994 134.408 186.517C134.556 186.032 134.629 185.429 134.629 184.71C134.629 183.991 134.556 183.393 134.408 182.916C134.27 182.431 134.057 182.071 133.771 181.837C133.494 181.594 133.147 181.473 132.731 181.473C132.315 181.473 131.964 181.594 131.678 181.837C131.401 182.071 131.193 182.431 131.054 182.916C130.916 183.393 130.846 183.991 130.846 184.71C130.846 185.429 130.916 186.032 131.054 186.517C131.193 186.994 131.401 187.353 131.678 187.596C131.964 187.83 132.315 187.947 132.731 187.947ZM144.615 189.13C144.078 189.13 143.588 188.996 143.146 188.727C142.713 188.458 142.37 188.073 142.119 187.57C141.868 187.067 141.742 186.465 141.742 185.763C141.742 185.035 141.876 184.42 142.145 183.917C142.414 183.414 142.773 183.033 143.224 182.773C143.675 182.504 144.169 182.37 144.706 182.37C145.261 182.37 145.729 182.522 146.11 182.825C146.491 183.128 146.747 183.523 146.877 184.008L146.721 184.151V179.575H148.112V189H146.877L146.773 187.232L146.955 187.245C146.894 187.635 146.751 187.973 146.526 188.259C146.301 188.536 146.019 188.753 145.681 188.909C145.352 189.056 144.996 189.13 144.615 189.13ZM144.914 188.012C145.287 188.012 145.607 187.917 145.876 187.726C146.145 187.535 146.353 187.267 146.5 186.92C146.647 186.573 146.721 186.157 146.721 185.672C146.721 185.221 146.647 184.836 146.5 184.515C146.353 184.186 146.145 183.934 145.876 183.761C145.616 183.588 145.313 183.501 144.966 183.501C144.385 183.501 143.935 183.7 143.614 184.099C143.293 184.498 143.133 185.048 143.133 185.75C143.133 186.452 143.289 187.007 143.601 187.414C143.913 187.813 144.351 188.012 144.914 188.012ZM151.66 182.5V189H150.269V182.5H151.66ZM151.179 179.302H152.583L151.296 181.486H150.23L151.179 179.302ZM157.594 184.827C157.594 184.394 157.472 184.06 157.23 183.826C156.996 183.583 156.671 183.462 156.255 183.462C155.865 183.462 155.531 183.553 155.254 183.735C154.976 183.917 154.773 184.212 154.643 184.619L153.473 184.125C153.637 183.596 153.958 183.172 154.435 182.851C154.92 182.53 155.544 182.37 156.307 182.37C156.827 182.37 157.286 182.457 157.685 182.63C158.083 182.795 158.395 183.046 158.621 183.384C158.855 183.722 158.972 184.155 158.972 184.684V187.583C158.972 187.904 159.132 188.064 159.453 188.064C159.609 188.064 159.76 188.042 159.908 187.999L159.83 188.961C159.63 189.056 159.379 189.104 159.076 189.104C158.798 189.104 158.547 189.056 158.322 188.961C158.105 188.857 157.932 188.705 157.802 188.506C157.68 188.298 157.62 188.042 157.62 187.739V187.648L157.906 187.635C157.828 187.973 157.667 188.255 157.425 188.48C157.182 188.697 156.9 188.861 156.58 188.974C156.259 189.078 155.934 189.13 155.605 189.13C155.197 189.13 154.829 189.065 154.5 188.935C154.179 188.805 153.923 188.61 153.733 188.35C153.551 188.081 153.46 187.752 153.46 187.362C153.46 186.877 153.616 186.478 153.928 186.166C154.248 185.854 154.699 185.642 155.28 185.529L157.802 185.035L157.789 186.01L155.956 186.387C155.592 186.456 155.319 186.556 155.137 186.686C154.955 186.816 154.864 187.007 154.864 187.258C154.864 187.501 154.955 187.696 155.137 187.843C155.327 187.982 155.579 188.051 155.891 188.051C156.107 188.051 156.315 188.025 156.515 187.973C156.723 187.921 156.909 187.839 157.074 187.726C157.238 187.605 157.364 187.453 157.451 187.271C157.546 187.08 157.594 186.855 157.594 186.595V184.827ZM163.721 189.13C163.071 189.13 162.477 189.004 161.94 188.753C161.403 188.502 160.978 188.146 160.666 187.687L161.628 186.855C161.819 187.21 162.092 187.496 162.447 187.713C162.811 187.921 163.244 188.025 163.747 188.025C164.146 188.025 164.462 187.956 164.696 187.817C164.93 187.678 165.047 187.483 165.047 187.232C165.047 187.067 164.991 186.924 164.878 186.803C164.774 186.673 164.57 186.573 164.267 186.504L162.902 186.218C162.209 186.079 161.715 185.858 161.42 185.555C161.125 185.243 160.978 184.849 160.978 184.372C160.978 184.017 161.082 183.687 161.29 183.384C161.498 183.081 161.801 182.838 162.2 182.656C162.607 182.465 163.093 182.37 163.656 182.37C164.306 182.37 164.861 182.487 165.32 182.721C165.779 182.946 166.13 183.271 166.373 183.696L165.411 184.502C165.246 184.155 165.004 183.9 164.683 183.735C164.362 183.562 164.029 183.475 163.682 183.475C163.405 183.475 163.166 183.51 162.967 183.579C162.768 183.648 162.616 183.744 162.512 183.865C162.408 183.986 162.356 184.129 162.356 184.294C162.356 184.467 162.421 184.619 162.551 184.749C162.681 184.879 162.915 184.979 163.253 185.048L164.735 185.36C165.359 185.481 165.797 185.689 166.048 185.984C166.308 186.27 166.438 186.621 166.438 187.037C166.438 187.453 166.33 187.821 166.113 188.142C165.896 188.454 165.584 188.697 165.177 188.87C164.77 189.043 164.284 189.13 163.721 189.13Z" fill="#676767"/>
<path d="M289.313 188.526C289.598 188.793 290.041 188.793 290.326 188.526L296.472 182.778C296.963 182.319 296.638 181.495 295.966 181.495H283.673C283.001 181.495 282.676 182.319 283.167 182.778L289.313 188.526Z" fill="#676767"/>
<path d="M64.6346 148.42C65.2499 148.42 65.7786 148.528 66.2206 148.745C66.6713 148.962 67.0223 149.269 67.2736 149.668C67.5249 150.067 67.6506 150.548 67.6506 151.111C67.6506 151.666 67.5249 152.147 67.2736 152.554C67.0223 152.953 66.6713 153.26 66.2206 153.477C65.7786 153.694 65.2499 153.802 64.6346 153.802H62.7236V157H61.3326V148.42H64.6346ZM64.4136 152.606C65.0289 152.606 65.4796 152.48 65.7656 152.229C66.0603 151.969 66.2076 151.596 66.2076 151.111C66.2076 150.617 66.0603 150.244 65.7656 149.993C65.4796 149.733 65.0289 149.603 64.4136 149.603H62.7236V152.606H64.4136ZM72.0083 157.13C71.3583 157.13 70.7863 156.996 70.2923 156.727C69.7983 156.458 69.4127 156.073 69.1353 155.57C68.8667 155.059 68.7323 154.452 68.7323 153.75C68.7323 153.048 68.8667 152.446 69.1353 151.943C69.4127 151.432 69.794 151.042 70.2793 150.773C70.7647 150.504 71.315 150.37 71.9303 150.37C72.563 150.37 73.1003 150.5 73.5423 150.76C73.9843 151.02 74.3223 151.375 74.5563 151.826C74.7903 152.277 74.9073 152.788 74.9073 153.36C74.9073 153.516 74.903 153.663 74.8943 153.802C74.8857 153.941 74.8727 154.062 74.8553 154.166H69.6293V153.1H74.2443L73.5553 153.308C73.5553 152.719 73.408 152.268 73.1133 151.956C72.8187 151.635 72.4157 151.475 71.9043 151.475C71.5317 151.475 71.2067 151.562 70.9293 151.735C70.652 151.908 70.4397 152.168 70.2923 152.515C70.145 152.853 70.0713 153.269 70.0713 153.763C70.0713 154.248 70.1493 154.66 70.3053 154.998C70.4613 155.336 70.6823 155.592 70.9683 155.765C71.2543 155.938 71.5923 156.025 71.9823 156.025C72.4157 156.025 72.7667 155.943 73.0353 155.778C73.304 155.613 73.5163 155.384 73.6723 155.089L74.7773 155.609C74.6213 155.921 74.409 156.194 74.1403 156.428C73.8803 156.653 73.5683 156.827 73.2043 156.948C72.8403 157.069 72.4417 157.13 72.0083 157.13ZM76.664 157V150.5H77.847L77.977 151.67C78.1503 151.245 78.406 150.925 78.744 150.708C79.0906 150.483 79.5153 150.37 80.018 150.37C80.148 150.37 80.278 150.383 80.408 150.409C80.538 150.426 80.6463 150.457 80.733 150.5L80.538 151.722C80.4426 151.687 80.3343 151.661 80.213 151.644C80.1003 151.618 79.9443 151.605 79.745 151.605C79.4763 151.605 79.212 151.679 78.952 151.826C78.692 151.965 78.4753 152.177 78.302 152.463C78.1373 152.749 78.055 153.113 78.055 153.555V157H76.664ZM83.4378 150.5V157H82.0468V150.5H83.4378ZM82.9568 147.302H84.3608L83.0738 149.486H82.0078L82.9568 147.302ZM88.4352 150.37C89.0678 150.37 89.6268 150.504 90.1122 150.773C90.5975 151.042 90.9745 151.432 91.2432 151.943C91.5205 152.446 91.6592 153.048 91.6592 153.75C91.6592 154.452 91.5205 155.059 91.2432 155.57C90.9745 156.073 90.5975 156.458 90.1122 156.727C89.6268 156.996 89.0678 157.13 88.4352 157.13C87.8025 157.13 87.2435 156.996 86.7582 156.727C86.2728 156.458 85.8915 156.073 85.6142 155.57C85.3368 155.059 85.1982 154.452 85.1982 153.75C85.1982 153.048 85.3368 152.446 85.6142 151.943C85.8915 151.432 86.2728 151.042 86.7582 150.773C87.2435 150.504 87.8025 150.37 88.4352 150.37ZM88.4352 151.462C88.0452 151.462 87.7115 151.553 87.4342 151.735C87.1655 151.908 86.9575 152.164 86.8102 152.502C86.6628 152.84 86.5892 153.256 86.5892 153.75C86.5892 154.235 86.6628 154.651 86.8102 154.998C86.9575 155.336 87.1655 155.596 87.4342 155.778C87.7115 155.951 88.0452 156.038 88.4352 156.038C88.8252 156.038 89.1545 155.951 89.4232 155.778C89.6918 155.596 89.8998 155.336 90.0472 154.998C90.1945 154.651 90.2682 154.235 90.2682 153.75C90.2682 153.256 90.1945 152.84 90.0472 152.502C89.8998 152.164 89.6918 151.908 89.4232 151.735C89.1545 151.553 88.8252 151.462 88.4352 151.462ZM95.9051 157.13C95.3677 157.13 94.8781 156.996 94.4361 156.727C94.0027 156.458 93.6604 156.073 93.4091 155.57C93.1577 155.067 93.0321 154.465 93.0321 153.763C93.0321 153.035 93.1664 152.42 93.4351 151.917C93.7037 151.414 94.0634 151.033 94.5141 150.773C94.9647 150.504 95.4587 150.37 95.9961 150.37C96.5507 150.37 97.0187 150.522 97.4001 150.825C97.7814 151.128 98.0371 151.523 98.1671 152.008L98.0111 152.151V147.575H99.4021V157H98.1671L98.0631 155.232L98.2451 155.245C98.1844 155.635 98.0414 155.973 97.8161 156.259C97.5907 156.536 97.3091 156.753 96.9711 156.909C96.6417 157.056 96.2864 157.13 95.9051 157.13ZM96.2041 156.012C96.5767 156.012 96.8974 155.917 97.1661 155.726C97.4347 155.535 97.6427 155.267 97.7901 154.92C97.9374 154.573 98.0111 154.157 98.0111 153.672C98.0111 153.221 97.9374 152.836 97.7901 152.515C97.6427 152.186 97.4347 151.934 97.1661 151.761C96.9061 151.588 96.6027 151.501 96.2561 151.501C95.6754 151.501 95.2247 151.7 94.9041 152.099C94.5834 152.498 94.4231 153.048 94.4231 153.75C94.4231 154.452 94.5791 155.007 94.8911 155.414C95.2031 155.813 95.6407 156.012 96.2041 156.012ZM104.38 150.37C105.013 150.37 105.572 150.504 106.057 150.773C106.543 151.042 106.92 151.432 107.188 151.943C107.466 152.446 107.604 153.048 107.604 153.75C107.604 154.452 107.466 155.059 107.188 155.57C106.92 156.073 106.543 156.458 106.057 156.727C105.572 156.996 105.013 157.13 104.38 157.13C103.748 157.13 103.189 156.996 102.703 156.727C102.218 156.458 101.837 156.073 101.559 155.57C101.282 155.059 101.143 154.452 101.143 153.75C101.143 153.048 101.282 152.446 101.559 151.943C101.837 151.432 102.218 151.042 102.703 150.773C103.189 150.504 103.748 150.37 104.38 150.37ZM104.38 151.462C103.99 151.462 103.657 151.553 103.379 151.735C103.111 151.908 102.903 152.164 102.755 152.502C102.608 152.84 102.534 153.256 102.534 153.75C102.534 154.235 102.608 154.651 102.755 154.998C102.903 155.336 103.111 155.596 103.379 155.778C103.657 155.951 103.99 156.038 104.38 156.038C104.77 156.038 105.1 155.951 105.368 155.778C105.637 155.596 105.845 155.336 105.992 154.998C106.14 154.651 106.213 154.235 106.213 153.75C106.213 153.256 106.14 152.84 105.992 152.502C105.845 152.164 105.637 151.908 105.368 151.735C105.1 151.553 104.77 151.462 104.38 151.462Z" fill="#3E3D3D"/>
<rect x="56.5" y="167.5" width="254" height="34" rx="2.44125" stroke="#B3B3B3"/>
<path d="M64.2576 82.29C65.8436 82.29 66.9356 82.862 67.6896 84.032L66.6366 84.981C66.1556 83.954 65.4926 83.499 64.2706 83.499C63.0486 83.499 62.3856 84.045 62.3856 84.773C62.3856 85.462 62.9186 85.826 64.5826 86.125C66.8836 86.528 67.7286 87.243 67.7286 88.621C67.7286 90.155 66.3376 91.13 64.3096 91.13C62.4376 91.13 61.2806 90.454 60.6176 89.388L61.5926 88.413C62.1516 89.453 63.0096 89.921 64.2966 89.921C65.5186 89.921 66.2726 89.492 66.2726 88.699C66.2726 88.088 65.7526 87.737 64.1406 87.438C61.7876 86.996 60.9166 86.281 60.9166 84.916C60.9166 83.46 62.1646 82.29 64.2576 82.29ZM75.2894 87.555C75.2894 87.802 75.2634 88.101 75.2374 88.27H70.4794C70.6354 89.414 71.3114 90.025 72.3644 90.025C73.2224 90.025 73.7944 89.713 74.0024 89.141L75.1594 89.622C74.6914 90.584 73.7944 91.13 72.3644 91.13C70.3104 91.13 69.1014 89.869 69.1014 87.75C69.1014 85.631 70.2454 84.37 72.2734 84.37C74.2234 84.37 75.2894 85.67 75.2894 87.555ZM72.2734 85.475C71.2464 85.475 70.6354 86.086 70.4924 87.204H73.9894C73.8594 86.112 73.2484 85.475 72.2734 85.475ZM78.3841 81.575V89.102C78.3841 89.739 78.5401 89.96 79.0601 89.96C79.3851 89.96 79.5801 89.921 79.9181 89.791L79.7621 90.909C79.4761 91.052 79.0601 91.13 78.6831 91.13C77.5261 91.13 76.9931 90.558 76.9931 89.297V81.575H78.3841ZM86.8929 87.555C86.8929 87.802 86.8669 88.101 86.8409 88.27H82.0829C82.2389 89.414 82.9149 90.025 83.9679 90.025C84.8259 90.025 85.3979 89.713 85.6059 89.141L86.7629 89.622C86.2949 90.584 85.3979 91.13 83.9679 91.13C81.9139 91.13 80.7049 89.869 80.7049 87.75C80.7049 85.631 81.8489 84.37 83.8769 84.37C85.8269 84.37 86.8929 85.67 86.8929 87.555ZM83.8769 85.475C82.8499 85.475 82.2389 86.086 82.0959 87.204H85.5929C85.4629 86.112 84.8519 85.475 83.8769 85.475ZM91.4956 84.37C93.0686 84.37 93.9136 85.124 94.3166 86.19L93.0166 86.71C92.7956 85.904 92.3016 85.475 91.4956 85.475C90.3386 85.475 89.6626 86.294 89.6626 87.763C89.6626 89.232 90.3516 90.025 91.4956 90.025C92.3926 90.025 92.9256 89.57 93.0946 88.764L94.3686 89.193C94.0046 90.376 93.0296 91.13 91.5216 91.13C89.4676 91.13 88.2586 89.869 88.2586 87.75C88.2586 85.631 89.4676 84.37 91.4956 84.37ZM98.8589 84.37C100.432 84.37 101.277 85.124 101.68 86.19L100.38 86.71C100.159 85.904 99.6649 85.475 98.8589 85.475C97.7019 85.475 97.0259 86.294 97.0259 87.763C97.0259 89.232 97.7149 90.025 98.8589 90.025C99.7559 90.025 100.289 89.57 100.458 88.764L101.732 89.193C101.368 90.376 100.393 91.13 98.8849 91.13C96.8309 91.13 95.6219 89.869 95.6219 87.75C95.6219 85.631 96.8309 84.37 98.8589 84.37ZM104.064 83.408C103.466 83.408 103.128 83.083 103.128 82.537C103.128 81.991 103.466 81.679 104.064 81.679C104.662 81.679 104.987 81.991 104.987 82.537C104.987 83.083 104.662 83.408 104.064 83.408ZM104.753 84.5V91H103.362V84.5H104.753ZM109.79 84.37C111.818 84.37 113.027 85.631 113.027 87.75C113.027 89.869 111.818 91.13 109.79 91.13C107.762 91.13 106.553 89.869 106.553 87.75C106.553 85.631 107.762 84.37 109.79 84.37ZM109.79 85.462C108.62 85.462 107.957 86.281 107.957 87.75C107.957 89.219 108.62 90.038 109.79 90.038C110.96 90.038 111.636 89.219 111.636 87.75C111.636 86.281 110.96 85.462 109.79 85.462ZM118.31 84.37C119.688 84.37 120.754 85.163 120.754 86.788V91H119.363V87.23C119.363 85.943 118.765 85.514 117.972 85.514C117.114 85.514 116.204 86.06 116.204 87.555V91H114.813V84.5H116.048L116.113 85.592C116.555 84.734 117.374 84.37 118.31 84.37ZM128.673 87.555C128.673 87.802 128.647 88.101 128.621 88.27H123.863C124.019 89.414 124.695 90.025 125.748 90.025C126.606 90.025 127.178 89.713 127.386 89.141L128.543 89.622C128.075 90.584 127.178 91.13 125.748 91.13C123.694 91.13 122.485 89.869 122.485 87.75C122.485 85.631 123.629 84.37 125.657 84.37C127.607 84.37 128.673 85.67 128.673 87.555ZM125.657 85.475C124.63 85.475 124.019 86.086 123.876 87.204H127.373C127.243 86.112 126.632 85.475 125.657 85.475ZM137.503 84.37C139.076 84.37 139.921 85.124 140.324 86.19L139.024 86.71C138.803 85.904 138.309 85.475 137.503 85.475C136.346 85.475 135.67 86.294 135.67 87.763C135.67 89.232 136.359 90.025 137.503 90.025C138.4 90.025 138.933 89.57 139.102 88.764L140.376 89.193C140.012 90.376 139.037 91.13 137.529 91.13C135.475 91.13 134.266 89.869 134.266 87.75C134.266 85.631 135.475 84.37 137.503 84.37ZM147.623 90.09C147.792 90.09 147.961 90.077 148.104 90.038L148.013 90.974C147.805 91.065 147.532 91.13 147.207 91.13C146.505 91.13 146.024 90.87 145.881 90.155C145.478 90.779 144.646 91.13 143.684 91.13C142.462 91.13 141.565 90.558 141.565 89.427C141.565 88.426 142.397 87.685 144.1 87.386L145.751 87.087V86.749C145.751 85.969 145.27 85.462 144.425 85.462C143.619 85.462 143.021 85.813 142.748 86.632L141.669 86.06C141.981 85.033 142.982 84.37 144.399 84.37C146.024 84.37 147.142 85.111 147.142 86.671V89.609C147.142 89.934 147.272 90.09 147.623 90.09ZM143.983 90.077C144.854 90.077 145.751 89.622 145.751 88.842V88.062L144.334 88.348C143.45 88.517 143.008 88.816 143.008 89.336C143.008 89.817 143.372 90.077 143.983 90.077ZM150.123 81.679C150.682 81.679 151.046 82.017 151.046 82.537C151.046 83.057 150.682 83.408 150.123 83.408C149.551 83.408 149.187 83.057 149.187 82.537C149.187 82.017 149.551 81.679 150.123 81.679ZM150.812 84.5V91.572C150.812 93.236 149.772 93.795 148.68 93.795C148.095 93.795 147.601 93.626 147.25 93.366L147.497 92.248C147.731 92.443 148.082 92.612 148.498 92.612C149.057 92.612 149.421 92.313 149.421 91.442V84.5H150.812ZM158.591 90.09C158.76 90.09 158.929 90.077 159.072 90.038L158.981 90.974C158.773 91.065 158.5 91.13 158.175 91.13C157.473 91.13 156.992 90.87 156.849 90.155C156.446 90.779 155.614 91.13 154.652 91.13C153.43 91.13 152.533 90.558 152.533 89.427C152.533 88.426 153.365 87.685 155.068 87.386L156.719 87.087V86.749C156.719 85.969 156.238 85.462 155.393 85.462C154.587 85.462 153.989 85.813 153.716 86.632L152.637 86.06C152.949 85.033 153.95 84.37 155.367 84.37C156.992 84.37 158.11 85.111 158.11 86.671V89.609C158.11 89.934 158.24 90.09 158.591 90.09ZM154.951 90.077C155.822 90.077 156.719 89.622 156.719 88.842V88.062L155.302 88.348C154.418 88.517 153.976 88.816 153.976 89.336C153.976 89.817 154.34 90.077 154.951 90.077Z" fill="#3E3D3D"/>
<rect x="56.5" y="101.5" width="254" height="34" rx="2.44125" stroke="#B3B3B3"/>
<path d="M61.5833 33V34.9358C58.9846 35.3749 57 37.6602 57 40.3846C57 42.0246 57.7654 43.2883 58.7799 44.1038C59.7945 44.9193 61.0138 45.3764 62.1618 45.8335C63.3099 46.2905 64.3778 46.7655 65.0809 47.3301C65.784 47.8947 66.1667 48.4772 66.1667 49.6064C66.1667 51.596 64.5202 53.2987 62.5 53.2987C60.4798 53.2987 58.8333 51.6497 58.8333 49.6064V48.6833H57V49.6064C57 52.3488 58.9846 54.6251 61.5833 55.0642V57H63.4167V55.0642C66.0243 54.6161 68 52.3129 68 49.6064C68 47.9574 67.2346 46.7028 66.2201 45.8872C65.2055 45.0717 63.9862 44.5878 62.8382 44.1307C61.6901 43.6736 60.6222 43.2255 59.9191 42.6609C59.216 42.0963 58.8333 41.5049 58.8333 40.3846C58.8333 38.3592 60.4709 36.6923 62.5 36.6923C64.5291 36.6923 66.1667 38.3413 66.1667 40.3846V41.3077H68V40.3846C68 37.6423 66.0154 35.3659 63.4167 34.9268V33H61.5833Z" fill="black"/>
<path d="M253.759 122.532C254.044 122.799 254.486 122.799 254.771 122.532L260.917 116.784C261.408 116.325 261.083 115.501 260.411 115.501H248.119C247.446 115.501 247.121 116.325 247.612 116.784L253.759 122.532Z" fill="#676767"/>
<line x1="271.5" y1="101" x2="271.5" y2="136" stroke="#B3B3B3"/>
<path d="M298.958 115.207C299.058 115.479 298.974 115.782 298.759 115.976L297.414 117.208C297.448 117.467 297.466 117.733 297.466 118.002C297.466 118.27 297.448 118.536 297.414 118.795L298.759 120.027C298.974 120.221 299.058 120.524 298.958 120.796C298.822 121.168 298.657 121.524 298.467 121.868L298.321 122.121C298.116 122.465 297.886 122.79 297.634 123.096C297.451 123.321 297.146 123.396 296.873 123.309L295.141 122.756C294.725 123.078 294.265 123.346 293.774 123.55L293.385 125.334C293.323 125.619 293.105 125.844 292.819 125.891C292.391 125.962 291.949 126 291.498 126C291.048 126 290.606 125.962 290.177 125.891C289.891 125.844 289.674 125.619 289.612 125.334L289.223 123.55C288.732 123.346 288.272 123.078 287.855 122.756L286.127 123.312C285.854 123.399 285.549 123.321 285.366 123.099C285.114 122.793 284.884 122.468 284.679 122.124L284.533 121.871C284.343 121.527 284.178 121.171 284.042 120.799C283.942 120.527 284.026 120.224 284.241 120.03L285.586 118.799C285.552 118.536 285.534 118.27 285.534 118.002C285.534 117.733 285.552 117.467 285.586 117.208L284.241 115.976C284.026 115.782 283.942 115.479 284.042 115.207C284.178 114.835 284.343 114.479 284.533 114.135L284.679 113.882C284.884 113.538 285.114 113.213 285.366 112.907C285.549 112.682 285.854 112.607 286.127 112.694L287.859 113.248C288.275 112.926 288.735 112.657 289.226 112.454L289.615 110.669C289.677 110.384 289.895 110.159 290.181 110.113C290.609 110.038 291.051 110 291.502 110C291.952 110 292.394 110.038 292.823 110.109C293.109 110.156 293.326 110.381 293.388 110.666L293.777 112.45C294.268 112.654 294.728 112.922 295.145 113.244L296.876 112.691C297.149 112.604 297.454 112.682 297.637 112.904C297.889 113.21 298.119 113.535 298.324 113.879L298.47 114.132C298.66 114.476 298.825 114.832 298.962 115.204L298.958 115.207ZM291.502 120.502C292.875 120.502 293.988 119.382 293.988 118.002C293.988 116.621 292.875 115.501 291.502 115.501C290.128 115.501 289.015 116.621 289.015 118.002C289.015 119.382 290.128 120.502 291.502 120.502Z" fill="#131313"/>
<defs>
<filter id="filter0_d_1289_12" x="342" y="138" width="132.59" height="121.912" filterUnits="userSpaceOnUse" color-interpolation-filters="sRGB">
<feFlood flood-opacity="0" result="BackgroundImageFix"/>
<feColorMatrix in="SourceAlpha" type="matrix" values="0 0 0 0 0 0 0 0 0 0 0 0 0 0 0 0 0 0 127 0" result="hardAlpha"/>
<feOffset dy="4"/>
<feGaussianBlur stdDeviation="5"/>
<feComposite in2="hardAlpha" operator="out"/>
<feColorMatrix type="matrix" values="0 0 0 0 0 0 0 0 0 0 0 0 0 0 0 0 0 0 0.2 0"/>
<feBlend mode="normal" in2="BackgroundImageFix" result="effect1_dropShadow_1289_12"/>
<feBlend mode="normal" in="SourceGraphic" in2="effect1_dropShadow_1289_12" result="shape"/>
</filter>
<filter id="filter1_d_1289_12" x="342" y="18" width="132.59" height="121.912" filterUnits="userSpaceOnUse" color-interpolation-filters="sRGB">
<feFlood flood-opacity="0" result="BackgroundImageFix"/>
<feColorMatrix in="SourceAlpha" type="matrix" values="0 0 0 0 0 0 0 0 0 0 0 0 0 0 0 0 0 0 127 0" result="hardAlpha"/>
<feOffset dy="4"/>
<feGaussianBlur stdDeviation="5"/>
<feComposite in2="hardAlpha" operator="out"/>
<feColorMatrix type="matrix" values="0 0 0 0 0 0 0 0 0 0 0 0 0 0 0 0 0 0 0.2 0"/>
<feBlend mode="normal" in2="BackgroundImageFix" result="effect1_dropShadow_1289_12"/>
<feBlend mode="normal" in="SourceGraphic" in2="effect1_dropShadow_1289_12" result="shape"/>
</filter>
<filter id="filter2_d_1289_12" x="342" y="258" width="132.59" height="121.912" filterUnits="userSpaceOnUse" color-interpolation-filters="sRGB">
<feFlood flood-opacity="0" result="BackgroundImageFix"/>
<feColorMatrix in="SourceAlpha" type="matrix" values="0 0 0 0 0 0 0 0 0 0 0 0 0 0 0 0 0 0 127 0" result="hardAlpha"/>
<feOffset dy="4"/>
<feGaussianBlur stdDeviation="5"/>
<feComposite in2="hardAlpha" operator="out"/>
<feColorMatrix type="matrix" values="0 0 0 0 0 0 0 0 0 0 0 0 0 0 0 0 0 0 0.2 0"/>
<feBlend mode="normal" in2="BackgroundImageFix" result="effect1_dropShadow_1289_12"/>
<feBlend mode="normal" in="SourceGraphic" in2="effect1_dropShadow_1289_12" result="shape"/>
</filter>
<filter id="filter3_d_1289_12" x="25" y="17" width="316.031" height="364.559" filterUnits="userSpaceOnUse" color-interpolation-filters="sRGB">
<feFlood flood-opacity="0" result="BackgroundImageFix"/>
<feColorMatrix in="SourceAlpha" type="matrix" values="0 0 0 0 0 0 0 0 0 0 0 0 0 0 0 0 0 0 127 0" result="hardAlpha"/>
<feOffset dy="4"/>
<feGaussianBlur stdDeviation="5"/>
<feComposite in2="hardAlpha" operator="out"/>
<feColorMatrix type="matrix" values="0 0 0 0 0 0 0 0 0 0 0 0 0 0 0 0 0 0 0.2 0"/>
<feBlend mode="normal" in2="BackgroundImageFix" result="effect1_dropShadow_1289_12"/>
<feBlend mode="normal" in="SourceGraphic" in2="effect1_dropShadow_1289_12" result="shape"/>
</filter>
<filter id="filter4_d_1289_12" x="46" y="209" width="275" height="55" filterUnits="userSpaceOnUse" color-interpolation-filters="sRGB">
<feFlood flood-opacity="0" result="BackgroundImageFix"/>
<feColorMatrix in="SourceAlpha" type="matrix" values="0 0 0 0 0 0 0 0 0 0 0 0 0 0 0 0 0 0 127 0" result="hardAlpha"/>
<feOffset dy="4"/>
<feGaussianBlur stdDeviation="5"/>
<feComposite in2="hardAlpha" operator="out"/>
<feColorMatrix type="matrix" values="0 0 0 0 0 0 0 0 0 0 0 0 0 0 0 0 0 0 0.25 0"/>
<feBlend mode="normal" in2="BackgroundImageFix" result="effect1_dropShadow_1289_12"/>
<feBlend mode="normal" in="SourceGraphic" in2="effect1_dropShadow_1289_12" result="shape"/>
</filter>
<filter id="filter5_d_1289_12" x="46" y="259" width="275" height="55" filterUnits="userSpaceOnUse" color-interpolation-filters="sRGB">
<feFlood flood-opacity="0" result="BackgroundImageFix"/>
<feColorMatrix in="SourceAlpha" type="matrix" values="0 0 0 0 0 0 0 0 0 0 0 0 0 0 0 0 0 0 127 0" result="hardAlpha"/>
<feOffset dy="4"/>
<feGaussianBlur stdDeviation="5"/>
<feComposite in2="hardAlpha" operator="out"/>
<feColorMatrix type="matrix" values="0 0 0 0 0 0 0 0 0 0 0 0 0 0 0 0 0 0 0.25 0"/>
<feBlend mode="normal" in2="BackgroundImageFix" result="effect1_dropShadow_1289_12"/>
<feBlend mode="normal" in="SourceGraphic" in2="effect1_dropShadow_1289_12" result="shape"/>
</filter>
<filter id="filter6_d_1289_12" x="46" y="309" width="275" height="55" filterUnits="userSpaceOnUse" color-interpolation-filters="sRGB">
<feFlood flood-opacity="0" result="BackgroundImageFix"/>
<feColorMatrix in="SourceAlpha" type="matrix" values="0 0 0 0 0 0 0 0 0 0 0 0 0 0 0 0 0 0 127 0" result="hardAlpha"/>
<feOffset dy="4"/>
<feGaussianBlur stdDeviation="5"/>
<feComposite in2="hardAlpha" operator="out"/>
<feColorMatrix type="matrix" values="0 0 0 0 0 0 0 0 0 0 0 0 0 0 0 0 0 0 0.25 0"/>
<feBlend mode="normal" in2="BackgroundImageFix" result="effect1_dropShadow_1289_12"/>
<feBlend mode="normal" in="SourceGraphic" in2="effect1_dropShadow_1289_12" result="shape"/>
</filter>
</defs>
</svg>
