<svg width="500" height="390" viewBox="0 0 500 390" fill="none" xmlns="http://www.w3.org/2000/svg">
<g filter="url(#filter0_d_1265_2200)">
<rect x="33" y="23" width="120" height="165" rx="12" fill="#FBFBFB"/>
</g>
<rect x="48" y="116" width="90" height="7" rx="3.5" fill="#B3B3B3"/>
<rect x="66" y="129" width="53" height="7" rx="3.5" fill="#B3B3B3"/>
<path d="M68.072 152.439C68.072 153.791 66.967 155.091 64.952 155.091C63.145 155.091 61.754 154.103 61.754 152.504H63.34C63.405 153.245 63.925 153.843 64.952 153.843C65.992 153.843 66.577 153.284 66.577 152.517C66.577 150.333 61.78 151.75 61.78 148.422C61.78 146.836 63.041 145.848 64.887 145.848C66.616 145.848 67.838 146.758 67.968 148.305H66.33C66.278 147.694 65.745 147.135 64.809 147.109C63.951 147.083 63.288 147.499 63.288 148.37C63.288 150.411 68.072 149.137 68.072 152.439ZM70.0547 153.011V149.046H69.2097V147.837H70.0547V146.056H71.5497V147.837H73.2917V149.046H71.5497V153.011C71.5497 153.544 71.7577 153.765 72.3817 153.765H73.2917V155H72.1217C70.8477 155 70.0547 154.467 70.0547 153.011ZM81.4826 151.412C81.4826 153.661 79.8186 155.117 77.7646 155.117C75.7236 155.117 74.1766 153.661 74.1766 151.412C74.1766 149.163 75.7886 147.72 77.8296 147.72C79.8706 147.72 81.4826 149.163 81.4826 151.412ZM75.6846 151.412C75.6846 153.037 76.6466 153.83 77.7646 153.83C78.8696 153.83 79.9616 153.037 79.9616 151.412C79.9616 149.787 78.9086 149.007 77.8036 149.007C76.6856 149.007 75.6846 149.787 75.6846 151.412ZM82.4537 151.412C82.4537 149.176 83.9097 147.72 85.9637 147.72C87.7187 147.72 88.8627 148.591 89.2657 150.099H87.6667C87.4197 149.41 86.8477 148.968 85.9637 148.968C84.7677 148.968 83.9747 149.852 83.9747 151.412C83.9747 152.985 84.7677 153.869 85.9637 153.869C86.8477 153.869 87.3937 153.479 87.6667 152.738H89.2657C88.8627 154.142 87.7187 155.117 85.9637 155.117C83.9097 155.117 82.4537 153.661 82.4537 151.412ZM90.7426 155V145.38H92.2246V150.97L94.8246 147.837H96.8786L93.5766 151.425L96.8786 155H94.8766L92.2246 151.919V155H90.7426ZM99.4748 154.142C99.4748 154.675 99.0588 155.091 98.5388 155.091C98.0058 155.091 97.5898 154.675 97.5898 154.142C97.5898 153.609 98.0058 153.193 98.5388 153.193C99.0588 153.193 99.4748 153.609 99.4748 154.142ZM99.4748 148.682C99.4748 149.215 99.0588 149.631 98.5388 149.631C98.0058 149.631 97.5898 149.215 97.5898 148.682C97.5898 148.149 98.0058 147.733 98.5388 147.733C99.0588 147.733 99.4748 148.149 99.4748 148.682ZM108.167 152.426H109.532C109.701 153.271 110.26 153.752 111.248 153.752C112.431 153.752 113.029 152.959 113.029 150.541C112.6 151.139 111.781 151.464 110.923 151.464C109.259 151.464 107.907 150.437 107.907 148.435C107.907 146.55 109.064 145.302 111.053 145.302C113.497 145.302 114.316 146.979 114.316 150.086C114.316 153.284 113.64 154.987 111.157 154.987C109.194 154.987 108.284 153.778 108.167 152.426ZM111.183 150.216C112.236 150.216 112.86 149.501 112.86 148.435C112.86 147.226 112.171 146.537 111.092 146.537C109.987 146.537 109.324 147.304 109.324 148.396C109.324 149.371 109.87 150.216 111.183 150.216ZM116.328 145.497H122.048V146.797H117.693V149.384C118.044 148.916 118.811 148.526 119.656 148.526C121.983 148.526 122.698 150.255 122.698 151.685C122.698 153.57 121.619 155 119.422 155C117.472 155 116.341 153.921 116.12 152.439H117.563C117.758 153.245 118.434 153.765 119.435 153.765C120.709 153.765 121.281 152.894 121.281 151.724C121.281 150.489 120.67 149.787 119.435 149.787C118.564 149.787 117.979 150.268 117.732 150.97H116.328V145.497Z" fill="#FF2569"/>
<path d="M84.2011 173.387C84.2011 173.838 84.0841 174.262 83.8501 174.661C83.6247 175.051 83.2867 175.376 82.8361 175.636C82.3941 175.887 81.8697 176.035 81.2631 176.078V177.131H80.4311V176.065C79.5644 175.987 78.8667 175.727 78.3381 175.285C77.8094 174.834 77.5364 174.228 77.5191 173.465H79.4691C79.5211 174.089 79.8417 174.466 80.4311 174.596V172.113C79.8071 171.957 79.3044 171.801 78.9231 171.645C78.5417 171.489 78.2124 171.238 77.9351 170.891C77.6577 170.544 77.5191 170.072 77.5191 169.474C77.5191 168.72 77.7877 168.105 78.3251 167.628C78.8711 167.151 79.5731 166.878 80.4311 166.809V165.756H81.2631V166.809C82.0951 166.878 82.7581 167.13 83.2521 167.563C83.7547 167.996 84.0364 168.594 84.0971 169.357H82.1341C82.1081 169.106 82.0171 168.889 81.8611 168.707C81.7137 168.516 81.5144 168.382 81.2631 168.304V170.761C81.9131 170.926 82.4244 171.086 82.7971 171.242C83.1784 171.389 83.5077 171.636 83.7851 171.983C84.0624 172.321 84.2011 172.789 84.2011 173.387ZM79.4171 169.383C79.4171 169.669 79.5037 169.903 79.6771 170.085C79.8504 170.258 80.1017 170.401 80.4311 170.514V168.265C80.1191 168.308 79.8721 168.425 79.6901 168.616C79.5081 168.807 79.4171 169.062 79.4171 169.383ZM81.2631 174.622C81.5924 174.561 81.8481 174.427 82.0301 174.219C82.2207 174.011 82.3161 173.76 82.3161 173.465C82.3161 173.179 82.2251 172.949 82.0431 172.776C81.8611 172.603 81.6011 172.46 81.2631 172.347V174.622ZM92.0569 167.901L88.5989 176H86.7529L90.2369 168.109H85.7909V166.549H92.0569V167.901ZM95.253 173.335C95.3223 173.716 95.4783 174.011 95.721 174.219C95.9723 174.418 96.306 174.518 96.722 174.518C97.2593 174.518 97.6493 174.297 97.892 173.855C98.1347 173.404 98.256 172.65 98.256 171.593C98.0567 171.87 97.775 172.087 97.411 172.243C97.0557 172.399 96.67 172.477 96.254 172.477C95.6993 172.477 95.1967 172.364 94.746 172.139C94.304 171.905 93.953 171.563 93.693 171.112C93.433 170.653 93.303 170.098 93.303 169.448C93.303 168.486 93.589 167.723 94.161 167.16C94.733 166.588 95.513 166.302 96.501 166.302C97.7317 166.302 98.5983 166.696 99.101 167.485C99.6123 168.274 99.868 169.461 99.868 171.047C99.868 172.174 99.7683 173.097 99.569 173.816C99.3783 174.535 99.0447 175.081 98.568 175.454C98.1 175.827 97.4587 176.013 96.644 176.013C96.0027 176.013 95.4567 175.892 95.006 175.649C94.5553 175.398 94.2087 175.073 93.966 174.674C93.732 174.267 93.5977 173.82 93.563 173.335H95.253ZM96.631 170.995C97.0817 170.995 97.437 170.856 97.697 170.579C97.957 170.302 98.087 169.929 98.087 169.461C98.087 168.95 97.9483 168.555 97.671 168.278C97.4023 167.992 97.034 167.849 96.566 167.849C96.098 167.849 95.7253 167.996 95.448 168.291C95.1793 168.577 95.045 168.958 95.045 169.435C95.045 169.894 95.175 170.271 95.435 170.566C95.7037 170.852 96.1023 170.995 96.631 170.995ZM101.285 171.138C101.285 169.639 101.553 168.464 102.091 167.615C102.637 166.766 103.538 166.341 104.795 166.341C106.051 166.341 106.948 166.766 107.486 167.615C108.032 168.464 108.305 169.639 108.305 171.138C108.305 172.646 108.032 173.829 107.486 174.687C106.948 175.545 106.051 175.974 104.795 175.974C103.538 175.974 102.637 175.545 102.091 174.687C101.553 173.829 101.285 172.646 101.285 171.138ZM106.511 171.138C106.511 170.497 106.467 169.959 106.381 169.526C106.303 169.084 106.138 168.724 105.887 168.447C105.644 168.17 105.28 168.031 104.795 168.031C104.309 168.031 103.941 168.17 103.69 168.447C103.447 168.724 103.282 169.084 103.196 169.526C103.118 169.959 103.079 170.497 103.079 171.138C103.079 171.797 103.118 172.351 103.196 172.802C103.274 173.244 103.438 173.604 103.69 173.881C103.941 174.15 104.309 174.284 104.795 174.284C105.28 174.284 105.648 174.15 105.9 173.881C106.151 173.604 106.316 173.244 106.394 172.802C106.472 172.351 106.511 171.797 106.511 171.138Z" fill="#00C7AF"/>
<rect x="48" y="36" width="90" height="70" rx="7" fill="#B3B3B3"/>
<g filter="url(#filter1_d_1265_2200)">
<rect x="33" y="203" width="120" height="165" rx="12" fill="#FBFBFB"/>
</g>
<rect x="48" y="296" width="90" height="7" rx="3.5" fill="#B3B3B3"/>
<rect x="66" y="309" width="53" height="7" rx="3.5" fill="#B3B3B3"/>
<path d="M68.072 332.439C68.072 333.791 66.967 335.091 64.952 335.091C63.145 335.091 61.754 334.103 61.754 332.504H63.34C63.405 333.245 63.925 333.843 64.952 333.843C65.992 333.843 66.577 333.284 66.577 332.517C66.577 330.333 61.78 331.75 61.78 328.422C61.78 326.836 63.041 325.848 64.887 325.848C66.616 325.848 67.838 326.758 67.968 328.305H66.33C66.278 327.694 65.745 327.135 64.809 327.109C63.951 327.083 63.288 327.499 63.288 328.37C63.288 330.411 68.072 329.137 68.072 332.439ZM70.0547 333.011V329.046H69.2097V327.837H70.0547V326.056H71.5497V327.837H73.2917V329.046H71.5497V333.011C71.5497 333.544 71.7577 333.765 72.3817 333.765H73.2917V335H72.1217C70.8477 335 70.0547 334.467 70.0547 333.011ZM81.4826 331.412C81.4826 333.661 79.8186 335.117 77.7646 335.117C75.7236 335.117 74.1766 333.661 74.1766 331.412C74.1766 329.163 75.7886 327.72 77.8296 327.72C79.8706 327.72 81.4826 329.163 81.4826 331.412ZM75.6846 331.412C75.6846 333.037 76.6466 333.83 77.7646 333.83C78.8696 333.83 79.9616 333.037 79.9616 331.412C79.9616 329.787 78.9086 329.007 77.8036 329.007C76.6856 329.007 75.6846 329.787 75.6846 331.412ZM82.4537 331.412C82.4537 329.176 83.9097 327.72 85.9637 327.72C87.7187 327.72 88.8627 328.591 89.2657 330.099H87.6667C87.4197 329.41 86.8477 328.968 85.9637 328.968C84.7677 328.968 83.9747 329.852 83.9747 331.412C83.9747 332.985 84.7677 333.869 85.9637 333.869C86.8477 333.869 87.3937 333.479 87.6667 332.738H89.2657C88.8627 334.142 87.7187 335.117 85.9637 335.117C83.9097 335.117 82.4537 333.661 82.4537 331.412ZM90.7426 335V325.38H92.2246V330.97L94.8246 327.837H96.8786L93.5766 331.425L96.8786 335H94.8766L92.2246 331.919V335H90.7426ZM99.4748 334.142C99.4748 334.675 99.0588 335.091 98.5388 335.091C98.0058 335.091 97.5898 334.675 97.5898 334.142C97.5898 333.609 98.0058 333.193 98.5388 333.193C99.0588 333.193 99.4748 333.609 99.4748 334.142ZM99.4748 328.682C99.4748 329.215 99.0588 329.631 98.5388 329.631C98.0058 329.631 97.5898 329.215 97.5898 328.682C97.5898 328.149 98.0058 327.733 98.5388 327.733C99.0588 327.733 99.4748 328.149 99.4748 328.682ZM104.192 334.87V333.791C106.428 331.828 108.781 330.112 108.781 328.253C108.781 327.265 108.352 326.589 107.247 326.589C106.207 326.589 105.648 327.317 105.609 328.383H104.179C104.231 326.329 105.557 325.328 107.234 325.328C109.158 325.328 110.25 326.485 110.25 328.188C110.25 330.489 107.91 332.244 106.389 333.635H110.51V334.87H104.192ZM111.695 334.87V333.791C113.931 331.828 116.284 330.112 116.284 328.253C116.284 327.265 115.855 326.589 114.75 326.589C113.71 326.589 113.151 327.317 113.112 328.383H111.682C111.734 326.329 113.06 325.328 114.737 325.328C116.661 325.328 117.753 326.485 117.753 328.188C117.753 330.489 115.413 332.244 113.892 333.635H118.013V334.87H111.695ZM119.315 330.138C119.315 327.434 120.043 325.354 122.695 325.354C125.347 325.354 126.075 327.434 126.075 330.138C126.075 332.894 125.347 334.974 122.695 334.974C120.043 334.974 119.315 332.894 119.315 330.138ZM124.619 330.138C124.619 328.37 124.424 326.706 122.695 326.706C120.966 326.706 120.771 328.37 120.771 330.138C120.771 331.997 120.966 333.622 122.695 333.622C124.424 333.622 124.619 331.997 124.619 330.138Z" fill="#FF2569"/>
<path d="M78.9198 353.387C78.9198 353.838 78.8028 354.262 78.5688 354.661C78.3435 355.051 78.0055 355.376 77.5548 355.636C77.1128 355.887 76.5885 356.035 75.9818 356.078V357.131H75.1498V356.065C74.2832 355.987 73.5855 355.727 73.0568 355.285C72.5282 354.834 72.2552 354.228 72.2378 353.465H74.1878C74.2398 354.089 74.5605 354.466 75.1498 354.596V352.113C74.5258 351.957 74.0232 351.801 73.6418 351.645C73.2605 351.489 72.9312 351.238 72.6538 350.891C72.3765 350.544 72.2378 350.072 72.2378 349.474C72.2378 348.72 72.5065 348.105 73.0438 347.628C73.5898 347.151 74.2918 346.878 75.1498 346.809V345.756H75.9818V346.809C76.8138 346.878 77.4768 347.13 77.9708 347.563C78.4735 347.996 78.7552 348.594 78.8158 349.357H76.8528C76.8268 349.106 76.7358 348.889 76.5798 348.707C76.4325 348.516 76.2332 348.382 75.9818 348.304V350.761C76.6318 350.926 77.1432 351.086 77.5158 351.242C77.8972 351.389 78.2265 351.636 78.5038 351.983C78.7812 352.321 78.9198 352.789 78.9198 353.387ZM74.1358 349.383C74.1358 349.669 74.2225 349.903 74.3958 350.085C74.5692 350.258 74.8205 350.401 75.1498 350.514V348.265C74.8378 348.308 74.5908 348.425 74.4088 348.616C74.2268 348.807 74.1358 349.062 74.1358 349.383ZM75.9818 354.622C76.3112 354.561 76.5668 354.427 76.7488 354.219C76.9395 354.011 77.0348 353.76 77.0348 353.465C77.0348 353.179 76.9438 352.949 76.7618 352.776C76.5798 352.603 76.3198 352.46 75.9818 352.347V354.622ZM80.5227 348.2V346.523H83.6557V356H81.7837V348.2H80.5227ZM86.0256 353.946C86.8576 353.253 87.5206 352.676 88.0146 352.217C88.5086 351.749 88.9203 351.264 89.2496 350.761C89.579 350.258 89.7436 349.764 89.7436 349.279C89.7436 348.837 89.6396 348.49 89.4316 348.239C89.2236 347.988 88.903 347.862 88.4696 347.862C88.0363 347.862 87.7026 348.009 87.4686 348.304C87.2346 348.59 87.1133 348.984 87.1046 349.487H85.3366C85.3713 348.447 85.679 347.658 86.2596 347.121C86.849 346.584 87.5943 346.315 88.4956 346.315C89.4836 346.315 90.242 346.579 90.7706 347.108C91.2993 347.628 91.5636 348.317 91.5636 349.175C91.5636 349.851 91.3816 350.497 91.0176 351.112C90.6536 351.727 90.2376 352.265 89.7696 352.724C89.3016 353.175 88.6906 353.721 87.9366 354.362H91.7716V355.87H85.3496V354.518L86.0256 353.946ZM99.2885 348.096H95.0765V350.319C95.2585 350.094 95.5185 349.912 95.8565 349.773C96.1945 349.626 96.5542 349.552 96.9355 349.552C97.6288 349.552 98.1965 349.704 98.6385 350.007C99.0805 350.31 99.4012 350.7 99.6005 351.177C99.7998 351.645 99.8995 352.148 99.8995 352.685C99.8995 353.682 99.6135 354.483 99.0415 355.09C98.4782 355.697 97.6722 356 96.6235 356C95.6355 356 94.8468 355.753 94.2575 355.259C93.6682 354.765 93.3345 354.119 93.2565 353.322H95.0245C95.1025 353.669 95.2758 353.946 95.5445 354.154C95.8218 354.362 96.1728 354.466 96.5975 354.466C97.1088 354.466 97.4945 354.306 97.7545 353.985C98.0145 353.664 98.1445 353.24 98.1445 352.711C98.1445 352.174 98.0102 351.766 97.7415 351.489C97.4815 351.203 97.0958 351.06 96.5845 351.06C96.2205 351.06 95.9172 351.151 95.6745 351.333C95.4318 351.515 95.2585 351.758 95.1545 352.061H93.4125V346.497H99.2885V348.096ZM101.285 351.138C101.285 349.639 101.553 348.464 102.091 347.615C102.637 346.766 103.538 346.341 104.795 346.341C106.051 346.341 106.948 346.766 107.486 347.615C108.032 348.464 108.305 349.639 108.305 351.138C108.305 352.646 108.032 353.829 107.486 354.687C106.948 355.545 106.051 355.974 104.795 355.974C103.538 355.974 102.637 355.545 102.091 354.687C101.553 353.829 101.285 352.646 101.285 351.138ZM106.511 351.138C106.511 350.497 106.467 349.959 106.381 349.526C106.303 349.084 106.138 348.724 105.887 348.447C105.644 348.17 105.28 348.031 104.795 348.031C104.309 348.031 103.941 348.17 103.69 348.447C103.447 348.724 103.282 349.084 103.196 349.526C103.118 349.959 103.079 350.497 103.079 351.138C103.079 351.797 103.118 352.351 103.196 352.802C103.274 353.244 103.438 353.604 103.69 353.881C103.941 354.15 104.309 354.284 104.795 354.284C105.28 354.284 105.648 354.15 105.9 353.881C106.151 353.604 106.316 353.244 106.394 352.802C106.472 352.351 106.511 351.797 106.511 351.138Z" fill="#00C7AF"/>
<rect x="48" y="216" width="90" height="70" rx="7" fill="#B3B3B3"/>
<g filter="url(#filter2_d_1265_2200)">
<rect x="170" y="23" width="295" height="344.559" rx="12" fill="#F2F2F2"/>
</g>
<path d="M170 234H465V356C465 362.627 459.627 368 453 368H182C175.373 368 170 362.627 170 356V234Z" fill="#FBFBFB"/>
<path d="M297.823 108L299 109.239L294.088 114.409L293.497 115L292.912 114.409L288 109.239L289.177 108L293.497 112.554L297.823 108Z" fill="#676767"/>
<path d="M208.772 109.669C208.772 108.759 208.252 108.174 207.095 108.174H205.457V111.203H207.095C208.252 111.203 208.772 110.566 208.772 109.669ZM203.975 106.965H207.095C209.24 106.965 210.293 108.2 210.293 109.669C210.293 110.735 209.721 111.879 208.2 112.256L210.436 116H208.668L206.588 112.386H205.457V116H203.975V106.965ZM218.676 108.837V116H217.194V115.142C216.726 115.753 215.92 116.104 215.075 116.104C213.398 116.104 212.124 115.051 212.124 113.049V108.837H213.593V112.828C213.593 114.141 214.308 114.817 215.387 114.817C216.479 114.817 217.194 114.141 217.194 112.828V108.837H218.676ZM222.113 109.903C222.581 109.253 223.478 108.72 224.609 108.72C226.507 108.72 227.976 110.176 227.976 112.386C227.976 114.596 226.494 116.117 224.609 116.117C223.426 116.117 222.581 115.584 222.113 114.96V116H220.631V106.38H222.113V109.903ZM226.468 112.386C226.468 110.839 225.402 110.007 224.284 110.007C223.179 110.007 222.113 110.878 222.113 112.412C222.113 113.959 223.179 114.83 224.284 114.83C225.402 114.83 226.468 113.933 226.468 112.386ZM230.924 112.23V116H229.442V108.837H230.924V109.877C231.34 109.162 232.055 108.72 233.069 108.72V110.254H232.692C231.6 110.254 230.924 110.709 230.924 112.23ZM241.256 112.412C241.256 114.661 239.592 116.117 237.538 116.117C235.497 116.117 233.95 114.661 233.95 112.412C233.95 110.163 235.562 108.72 237.603 108.72C239.644 108.72 241.256 110.163 241.256 112.412ZM235.458 112.412C235.458 114.037 236.42 114.83 237.538 114.83C238.643 114.83 239.735 114.037 239.735 112.412C239.735 110.787 238.682 110.007 237.577 110.007C236.459 110.007 235.458 110.787 235.458 112.412ZM248.064 113.998C248.064 115.207 247.011 116.117 245.321 116.117C243.605 116.117 242.396 115.103 242.331 113.803H243.865C243.917 114.388 244.476 114.869 245.295 114.869C246.153 114.869 246.608 114.505 246.608 114.011C246.608 112.607 242.448 113.413 242.448 110.787C242.448 109.643 243.514 108.72 245.204 108.72C246.829 108.72 247.895 109.591 247.973 111.021H246.491C246.439 110.397 245.958 109.968 245.152 109.968C244.359 109.968 243.943 110.293 243.943 110.774C243.943 112.217 247.986 111.411 248.064 113.998Z" fill="#676767"/>
<rect x="191.5" y="94.5" width="119" height="34" rx="2.44125" stroke="#B3B3B3"/>
<path d="M434.823 108L436 109.239L431.088 114.409L430.497 115L429.912 114.409L425 109.239L426.177 108L430.497 112.554L434.823 108Z" fill="#676767"/>
<path d="M346.072 113.439C346.072 114.791 344.967 116.091 342.952 116.091C341.145 116.091 339.754 115.103 339.754 113.504H341.34C341.405 114.245 341.925 114.843 342.952 114.843C343.992 114.843 344.577 114.284 344.577 113.517C344.577 111.333 339.78 112.75 339.78 109.422C339.78 107.836 341.041 106.848 342.887 106.848C344.616 106.848 345.838 107.758 345.968 109.305H344.33C344.278 108.694 343.745 108.135 342.809 108.109C341.951 108.083 341.288 108.499 341.288 109.37C341.288 111.411 346.072 110.137 346.072 113.439ZM354.308 108.837V116H352.826V115.142C352.358 115.753 351.552 116.104 350.707 116.104C349.03 116.104 347.756 115.051 347.756 113.049V108.837H349.225V112.828C349.225 114.141 349.94 114.817 351.019 114.817C352.111 114.817 352.826 114.141 352.826 112.828V108.837H354.308ZM357.745 109.903C358.213 109.253 359.11 108.72 360.241 108.72C362.139 108.72 363.608 110.176 363.608 112.386C363.608 114.596 362.126 116.117 360.241 116.117C359.058 116.117 358.213 115.584 357.745 114.96V116H356.263V106.38H357.745V109.903ZM362.1 112.386C362.1 110.839 361.034 110.007 359.916 110.007C358.811 110.007 357.745 110.878 357.745 112.412C357.745 113.959 358.811 114.83 359.916 114.83C361.034 114.83 362.1 113.933 362.1 112.386ZM366.556 112.23V116H365.074V108.837H366.556V109.877C366.972 109.162 367.687 108.72 368.701 108.72V110.254H368.324C367.232 110.254 366.556 110.709 366.556 112.23ZM376.55 108.837V116H375.068V115.142C374.6 115.753 373.794 116.104 372.949 116.104C371.272 116.104 369.998 115.051 369.998 113.049V108.837H371.467V112.828C371.467 114.141 372.182 114.817 373.261 114.817C374.353 114.817 375.068 114.141 375.068 112.828V108.837H376.55ZM379.987 109.903C380.455 109.253 381.352 108.72 382.483 108.72C384.381 108.72 385.85 110.176 385.85 112.386C385.85 114.596 384.368 116.117 382.483 116.117C381.3 116.117 380.455 115.584 379.987 114.96V116H378.505V106.38H379.987V109.903ZM384.342 112.386C384.342 110.839 383.276 110.007 382.158 110.007C381.053 110.007 379.987 110.878 379.987 112.412C379.987 113.959 381.053 114.83 382.158 114.83C383.276 114.83 384.342 113.933 384.342 112.386ZM388.798 112.23V116H387.316V108.837H388.798V109.877C389.214 109.162 389.929 108.72 390.943 108.72V110.254H390.566C389.474 110.254 388.798 110.709 388.798 112.23ZM399.13 112.412C399.13 114.661 397.466 116.117 395.412 116.117C393.371 116.117 391.824 114.661 391.824 112.412C391.824 110.163 393.436 108.72 395.477 108.72C397.518 108.72 399.13 110.163 399.13 112.412ZM393.332 112.412C393.332 114.037 394.294 114.83 395.412 114.83C396.517 114.83 397.609 114.037 397.609 112.412C397.609 110.787 396.556 110.007 395.451 110.007C394.333 110.007 393.332 110.787 393.332 112.412ZM405.938 113.998C405.938 115.207 404.885 116.117 403.195 116.117C401.479 116.117 400.27 115.103 400.205 113.803H401.739C401.791 114.388 402.35 114.869 403.169 114.869C404.027 114.869 404.482 114.505 404.482 114.011C404.482 112.607 400.322 113.413 400.322 110.787C400.322 109.643 401.388 108.72 403.078 108.72C404.703 108.72 405.769 109.591 405.847 111.021H404.365C404.313 110.397 403.832 109.968 403.026 109.968C402.233 109.968 401.817 110.293 401.817 110.774C401.817 112.217 405.86 111.411 405.938 113.998Z" fill="#676767"/>
<rect x="326.5" y="94.5" width="119" height="34" rx="2.44125" stroke="#B3B3B3"/>
<path d="M212.071 63.413C212.071 62.516 211.395 61.97 210.407 61.97H208.457V64.791H210.459C211.46 64.791 212.071 64.284 212.071 63.413ZM211.837 59.474C211.837 58.655 211.252 58.174 210.29 58.174H208.457V60.761H210.29C211.252 60.761 211.837 60.306 211.837 59.474ZM213.553 63.569C213.553 64.947 212.435 66 210.589 66H206.975V56.965H210.42C212.331 56.965 213.345 58.018 213.345 59.292C213.345 60.384 212.682 61.047 211.811 61.359C212.773 61.528 213.553 62.49 213.553 63.569ZM221.65 58.837V66H220.168V65.142C219.7 65.753 218.894 66.104 218.049 66.104C216.372 66.104 215.098 65.051 215.098 63.049V58.837H216.567V62.828C216.567 64.141 217.282 64.817 218.361 64.817C219.453 64.817 220.168 64.141 220.168 62.828V58.837H221.65ZM228.949 63.998C228.949 65.207 227.896 66.117 226.206 66.117C224.49 66.117 223.281 65.103 223.216 63.803H224.75C224.802 64.388 225.361 64.869 226.18 64.869C227.038 64.869 227.493 64.505 227.493 64.011C227.493 62.607 223.333 63.413 223.333 60.787C223.333 59.643 224.399 58.72 226.089 58.72C227.714 58.72 228.78 59.591 228.858 61.021H227.376C227.324 60.397 226.843 59.968 226.037 59.968C225.244 59.968 224.828 60.293 224.828 60.774C224.828 62.217 228.871 61.411 228.949 63.998ZM230.056 62.412C230.056 60.176 231.512 58.72 233.566 58.72C235.321 58.72 236.465 59.591 236.868 61.099H235.269C235.022 60.41 234.45 59.968 233.566 59.968C232.37 59.968 231.577 60.852 231.577 62.412C231.577 63.985 232.37 64.869 233.566 64.869C234.45 64.869 234.996 64.479 235.269 63.738H236.868C236.465 65.142 235.321 66.117 233.566 66.117C231.512 66.117 230.056 64.661 230.056 62.412ZM237.851 62.386C237.851 60.176 239.346 58.72 241.231 58.72C242.44 58.72 243.272 59.292 243.714 59.877V58.837H245.209V66H243.714V64.934C243.259 65.545 242.401 66.117 241.205 66.117C239.346 66.117 237.851 64.596 237.851 62.386ZM243.714 62.412C243.714 60.878 242.661 60.007 241.543 60.007C240.438 60.007 239.372 60.839 239.372 62.386C239.372 63.933 240.438 64.83 241.543 64.83C242.661 64.83 243.714 63.959 243.714 62.412ZM248.638 62.23V66H247.156V58.837H248.638V59.877C249.054 59.162 249.769 58.72 250.783 58.72V60.254H250.406C249.314 60.254 248.638 60.709 248.638 62.23ZM257.004 59.89C257.459 59.292 258.33 58.72 259.5 58.72C261.385 58.72 262.867 60.176 262.867 62.386C262.867 64.596 261.385 66.117 259.5 66.117C258.317 66.117 257.472 65.519 257.004 64.96V69.406H255.522V58.837H257.004V59.89ZM261.359 62.386C261.359 60.839 260.293 60.007 259.175 60.007C258.07 60.007 257.004 60.878 257.004 62.412C257.004 63.959 258.07 64.83 259.175 64.83C260.293 64.83 261.359 63.933 261.359 62.386ZM265.814 62.23V66H264.332V58.837H265.814V59.877C266.23 59.162 266.945 58.72 267.959 58.72V60.254H267.582C266.49 60.254 265.814 60.709 265.814 62.23ZM276.147 62.412C276.147 64.661 274.483 66.117 272.429 66.117C270.388 66.117 268.841 64.661 268.841 62.412C268.841 60.163 270.453 58.72 272.494 58.72C274.535 58.72 276.147 60.163 276.147 62.412ZM270.349 62.412C270.349 64.037 271.311 64.83 272.429 64.83C273.534 64.83 274.626 64.037 274.626 62.412C274.626 60.787 273.573 60.007 272.468 60.007C271.35 60.007 270.349 60.787 270.349 62.412ZM277.118 62.386C277.118 60.176 278.613 58.72 280.511 58.72C281.447 58.72 282.435 59.162 282.981 59.838V56.38H284.476V66H282.981V64.921C282.526 65.571 281.668 66.117 280.498 66.117C278.613 66.117 277.118 64.596 277.118 62.386ZM282.981 62.412C282.981 60.878 281.928 60.007 280.81 60.007C279.705 60.007 278.639 60.839 278.639 62.386C278.639 63.933 279.705 64.83 280.81 64.83C281.928 64.83 282.981 63.959 282.981 62.412ZM292.909 58.837V66H291.427V65.142C290.959 65.753 290.153 66.104 289.308 66.104C287.631 66.104 286.357 65.051 286.357 63.049V58.837H287.826V62.828C287.826 64.141 288.541 64.817 289.62 64.817C290.712 64.817 291.427 64.141 291.427 62.828V58.837H292.909ZM294.371 62.412C294.371 60.176 295.827 58.72 297.881 58.72C299.636 58.72 300.78 59.591 301.183 61.099H299.584C299.337 60.41 298.765 59.968 297.881 59.968C296.685 59.968 295.892 60.852 295.892 62.412C295.892 63.985 296.685 64.869 297.881 64.869C298.765 64.869 299.311 64.479 299.584 63.738H301.183C300.78 65.142 299.636 66.117 297.881 66.117C295.827 66.117 294.371 64.661 294.371 62.412ZM302.894 64.011V60.046H302.049V58.837H302.894V57.056H304.389V58.837H306.131V60.046H304.389V64.011C304.389 64.544 304.597 64.765 305.221 64.765H306.131V66H304.961C303.687 66 302.894 65.467 302.894 64.011ZM314.321 62.412C314.321 64.661 312.657 66.117 310.603 66.117C308.562 66.117 307.015 64.661 307.015 62.412C307.015 60.163 308.627 58.72 310.668 58.72C312.709 58.72 314.321 60.163 314.321 62.412ZM308.523 62.412C308.523 64.037 309.485 64.83 310.603 64.83C311.708 64.83 312.8 64.037 312.8 62.412C312.8 60.787 311.747 60.007 310.642 60.007C309.524 60.007 308.523 60.787 308.523 62.412ZM321.13 63.998C321.13 65.207 320.077 66.117 318.387 66.117C316.671 66.117 315.462 65.103 315.397 63.803H316.931C316.983 64.388 317.542 64.869 318.361 64.869C319.219 64.869 319.674 64.505 319.674 64.011C319.674 62.607 315.514 63.413 315.514 60.787C315.514 59.643 316.58 58.72 318.27 58.72C319.895 58.72 320.961 59.591 321.039 61.021H319.557C319.505 60.397 319.024 59.968 318.218 59.968C317.425 59.968 317.009 60.293 317.009 60.774C317.009 62.217 321.052 61.411 321.13 63.998ZM324.265 65.142C324.265 65.675 323.849 66.091 323.329 66.091C322.796 66.091 322.38 65.675 322.38 65.142C322.38 64.609 322.796 64.193 323.329 64.193C323.849 64.193 324.265 64.609 324.265 65.142ZM327.401 65.142C327.401 65.675 326.985 66.091 326.465 66.091C325.932 66.091 325.516 65.675 325.516 65.142C325.516 64.609 325.932 64.193 326.465 64.193C326.985 64.193 327.401 64.609 327.401 65.142ZM330.536 65.142C330.536 65.675 330.12 66.091 329.6 66.091C329.067 66.091 328.651 65.675 328.651 65.142C328.651 64.609 329.067 64.193 329.6 64.193C330.12 64.193 330.536 64.609 330.536 65.142Z" fill="#676767"/>
<rect x="191.5" y="44.5" width="254" height="34" rx="2.44125" stroke="#B3B3B3"/>
<path d="M419.998 52C423.855 52 426.997 55.1423 426.997 58.9984C426.997 60.6711 426.409 62.2107 425.422 63.4145L431 68.9922L429.992 70L424.414 64.4222C423.211 65.409 421.671 65.9969 419.998 65.9969C416.142 65.9969 413 62.8546 413 58.9984C413 55.1423 416.142 52 419.998 52ZM419.998 53.3997C416.898 53.3997 414.4 55.8981 414.4 58.9984C414.4 62.0988 416.898 64.5972 419.998 64.5972C423.099 64.5972 425.597 62.0988 425.597 58.9984C425.597 55.8981 423.099 53.3997 419.998 53.3997Z" fill="#676767"/>
<line x1="191.5" y1="298.5" x2="445.5" y2="298.5" stroke="#B3B3B3" stroke-linecap="round"/>
<path d="M200.636 252V260.636H192V262.364H200.636V271H202.364V262.364H211V260.636H202.364V252H200.636Z" fill="#2C9A8F"/>
<path d="M321.616 270.242C321.616 271.698 320.426 273.098 318.256 273.098C316.31 273.098 314.812 272.034 314.812 270.312H316.52C316.59 271.11 317.15 271.754 318.256 271.754C319.376 271.754 320.006 271.152 320.006 270.326C320.006 267.974 314.84 269.5 314.84 265.916C314.84 264.208 316.198 263.144 318.186 263.144C320.048 263.144 321.364 264.124 321.504 265.79H319.74C319.684 265.132 319.11 264.53 318.102 264.502C317.178 264.474 316.464 264.922 316.464 265.86C316.464 268.058 321.616 266.686 321.616 270.242ZM323.751 270.858V266.588H322.841V265.286H323.751V263.368H325.361V265.286H327.237V266.588H325.361V270.858C325.361 271.432 325.585 271.67 326.257 271.67H327.237V273H325.977C324.605 273 323.751 272.426 323.751 270.858ZM336.058 269.136C336.058 271.558 334.266 273.126 332.054 273.126C329.856 273.126 328.19 271.558 328.19 269.136C328.19 266.714 329.926 265.16 332.124 265.16C334.322 265.16 336.058 266.714 336.058 269.136ZM329.814 269.136C329.814 270.886 330.85 271.74 332.054 271.74C333.244 271.74 334.42 270.886 334.42 269.136C334.42 267.386 333.286 266.546 332.096 266.546C330.892 266.546 329.814 267.386 329.814 269.136ZM337.104 269.136C337.104 266.728 338.672 265.16 340.884 265.16C342.774 265.16 344.006 266.098 344.44 267.722H342.718C342.452 266.98 341.836 266.504 340.884 266.504C339.596 266.504 338.742 267.456 338.742 269.136C338.742 270.83 339.596 271.782 340.884 271.782C341.836 271.782 342.424 271.362 342.718 270.564H344.44C344.006 272.076 342.774 273.126 340.884 273.126C338.672 273.126 337.104 271.558 337.104 269.136ZM346.03 273V262.64H347.626V268.66L350.426 265.286H352.638L349.082 269.15L352.638 273H350.482L347.626 269.682V273H346.03ZM355.434 272.076C355.434 272.65 354.986 273.098 354.426 273.098C353.852 273.098 353.404 272.65 353.404 272.076C353.404 271.502 353.852 271.054 354.426 271.054C354.986 271.054 355.434 271.502 355.434 272.076ZM355.434 266.196C355.434 266.77 354.986 267.218 354.426 267.218C353.852 267.218 353.404 266.77 353.404 266.196C353.404 265.622 353.852 265.174 354.426 265.174C354.986 265.174 355.434 265.622 355.434 266.196ZM364.796 270.228H366.266C366.448 271.138 367.05 271.656 368.114 271.656C369.388 271.656 370.032 270.802 370.032 268.198C369.57 268.842 368.688 269.192 367.764 269.192C365.972 269.192 364.516 268.086 364.516 265.93C364.516 263.9 365.762 262.556 367.904 262.556C370.536 262.556 371.418 264.362 371.418 267.708C371.418 271.152 370.69 272.986 368.016 272.986C365.902 272.986 364.922 271.684 364.796 270.228ZM368.044 267.848C369.178 267.848 369.85 267.078 369.85 265.93C369.85 264.628 369.108 263.886 367.946 263.886C366.756 263.886 366.042 264.712 366.042 265.888C366.042 266.938 366.63 267.848 368.044 267.848ZM373.584 262.766H379.744V264.166H375.054V266.952C375.432 266.448 376.258 266.028 377.168 266.028C379.674 266.028 380.444 267.89 380.444 269.43C380.444 271.46 379.282 273 376.916 273C374.816 273 373.598 271.838 373.36 270.242H374.914C375.124 271.11 375.852 271.67 376.93 271.67C378.302 271.67 378.918 270.732 378.918 269.472C378.918 268.142 378.26 267.386 376.93 267.386C375.992 267.386 375.362 267.904 375.096 268.66H373.584V262.766Z" fill="#FF2569"/>
<path d="M413.293 270.186C413.293 270.671 413.167 271.129 412.915 271.558C412.673 271.978 412.309 272.328 411.823 272.608C411.347 272.879 410.783 273.037 410.129 273.084V274.218H409.233V273.07C408.3 272.986 407.549 272.706 406.979 272.23C406.41 271.745 406.116 271.091 406.097 270.27H408.197C408.253 270.942 408.599 271.348 409.233 271.488V268.814C408.561 268.646 408.02 268.478 407.609 268.31C407.199 268.142 406.844 267.871 406.545 267.498C406.247 267.125 406.097 266.616 406.097 265.972C406.097 265.16 406.387 264.497 406.965 263.984C407.553 263.471 408.309 263.177 409.233 263.102V261.968H410.129V263.102C411.025 263.177 411.739 263.447 412.271 263.914C412.813 264.381 413.116 265.025 413.181 265.846H411.067C411.039 265.575 410.941 265.342 410.773 265.146C410.615 264.941 410.4 264.796 410.129 264.712V267.358C410.829 267.535 411.38 267.708 411.781 267.876C412.192 268.035 412.547 268.301 412.845 268.674C413.144 269.038 413.293 269.542 413.293 270.186ZM408.141 265.874C408.141 266.182 408.235 266.434 408.421 266.63C408.608 266.817 408.879 266.971 409.233 267.092V264.67C408.897 264.717 408.631 264.843 408.435 265.048C408.239 265.253 408.141 265.529 408.141 265.874ZM410.129 271.516C410.484 271.451 410.759 271.306 410.955 271.082C411.161 270.858 411.263 270.587 411.263 270.27C411.263 269.962 411.165 269.715 410.969 269.528C410.773 269.341 410.493 269.187 410.129 269.066V271.516ZM421.754 264.278L418.03 273H416.042L419.794 264.502H415.006V262.822H421.754V264.278ZM425.196 270.13C425.27 270.541 425.438 270.858 425.7 271.082C425.97 271.297 426.33 271.404 426.778 271.404C427.356 271.404 427.776 271.166 428.038 270.69C428.299 270.205 428.43 269.393 428.43 268.254C428.215 268.553 427.912 268.786 427.52 268.954C427.137 269.122 426.722 269.206 426.274 269.206C425.676 269.206 425.135 269.085 424.65 268.842C424.174 268.59 423.796 268.221 423.516 267.736C423.236 267.241 423.096 266.644 423.096 265.944C423.096 264.908 423.404 264.087 424.02 263.48C424.636 262.864 425.476 262.556 426.54 262.556C427.865 262.556 428.798 262.981 429.34 263.83C429.89 264.679 430.166 265.958 430.166 267.666C430.166 268.879 430.058 269.873 429.844 270.648C429.638 271.423 429.279 272.011 428.766 272.412C428.262 272.813 427.571 273.014 426.694 273.014C426.003 273.014 425.415 272.883 424.93 272.622C424.444 272.351 424.071 272.001 423.81 271.572C423.558 271.133 423.413 270.653 423.376 270.13H425.196ZM426.68 267.61C427.165 267.61 427.548 267.461 427.828 267.162C428.108 266.863 428.248 266.462 428.248 265.958C428.248 265.407 428.098 264.983 427.8 264.684C427.51 264.376 427.114 264.222 426.61 264.222C426.106 264.222 425.704 264.381 425.406 264.698C425.116 265.006 424.972 265.417 424.972 265.93C424.972 266.425 425.112 266.831 425.392 267.148C425.681 267.456 426.11 267.61 426.68 267.61ZM431.691 267.764C431.691 266.149 431.981 264.885 432.559 263.97C433.147 263.055 434.118 262.598 435.471 262.598C436.825 262.598 437.791 263.055 438.369 263.97C438.957 264.885 439.251 266.149 439.251 267.764C439.251 269.388 438.957 270.662 438.369 271.586C437.791 272.51 436.825 272.972 435.471 272.972C434.118 272.972 433.147 272.51 432.559 271.586C431.981 270.662 431.691 269.388 431.691 267.764ZM437.319 267.764C437.319 267.073 437.273 266.495 437.179 266.028C437.095 265.552 436.918 265.165 436.647 264.866C436.386 264.567 435.994 264.418 435.471 264.418C434.949 264.418 434.552 264.567 434.281 264.866C434.02 265.165 433.843 265.552 433.749 266.028C433.665 266.495 433.623 267.073 433.623 267.764C433.623 268.473 433.665 269.071 433.749 269.556C433.833 270.032 434.011 270.419 434.281 270.718C434.552 271.007 434.949 271.152 435.471 271.152C435.994 271.152 436.391 271.007 436.661 270.718C436.932 270.419 437.109 270.032 437.193 269.556C437.277 269.071 437.319 268.473 437.319 267.764Z" fill="#00C7AF"/>
<rect x="225" y="266" width="70" height="7" rx="3.5" fill="#B3B3B3"/>
<rect x="225" y="251" width="50" height="7" rx="3.5" fill="#00C7AF"/>
<path d="M200.636 320V328.636H192V330.364H200.636V339H202.364V330.364H211V328.636H202.364V320H200.636Z" fill="#2C9A8F"/>
<path d="M321.616 338.242C321.616 339.698 320.426 341.098 318.256 341.098C316.31 341.098 314.812 340.034 314.812 338.312H316.52C316.59 339.11 317.15 339.754 318.256 339.754C319.376 339.754 320.006 339.152 320.006 338.326C320.006 335.974 314.84 337.5 314.84 333.916C314.84 332.208 316.198 331.144 318.186 331.144C320.048 331.144 321.364 332.124 321.504 333.79H319.74C319.684 333.132 319.11 332.53 318.102 332.502C317.178 332.474 316.464 332.922 316.464 333.86C316.464 336.058 321.616 334.686 321.616 338.242ZM323.751 338.858V334.588H322.841V333.286H323.751V331.368H325.361V333.286H327.237V334.588H325.361V338.858C325.361 339.432 325.585 339.67 326.257 339.67H327.237V341H325.977C324.605 341 323.751 340.426 323.751 338.858ZM336.058 337.136C336.058 339.558 334.266 341.126 332.054 341.126C329.856 341.126 328.19 339.558 328.19 337.136C328.19 334.714 329.926 333.16 332.124 333.16C334.322 333.16 336.058 334.714 336.058 337.136ZM329.814 337.136C329.814 338.886 330.85 339.74 332.054 339.74C333.244 339.74 334.42 338.886 334.42 337.136C334.42 335.386 333.286 334.546 332.096 334.546C330.892 334.546 329.814 335.386 329.814 337.136ZM337.104 337.136C337.104 334.728 338.672 333.16 340.884 333.16C342.774 333.16 344.006 334.098 344.44 335.722H342.718C342.452 334.98 341.836 334.504 340.884 334.504C339.596 334.504 338.742 335.456 338.742 337.136C338.742 338.83 339.596 339.782 340.884 339.782C341.836 339.782 342.424 339.362 342.718 338.564H344.44C344.006 340.076 342.774 341.126 340.884 341.126C338.672 341.126 337.104 339.558 337.104 337.136ZM346.03 341V330.64H347.626V336.66L350.426 333.286H352.638L349.082 337.15L352.638 341H350.482L347.626 337.682V341H346.03ZM355.434 340.076C355.434 340.65 354.986 341.098 354.426 341.098C353.852 341.098 353.404 340.65 353.404 340.076C353.404 339.502 353.852 339.054 354.426 339.054C354.986 339.054 355.434 339.502 355.434 340.076ZM355.434 334.196C355.434 334.77 354.986 335.218 354.426 335.218C353.852 335.218 353.404 334.77 353.404 334.196C353.404 333.622 353.852 333.174 354.426 333.174C354.986 333.174 355.434 333.622 355.434 334.196ZM360.515 340.86V339.698C362.923 337.584 365.457 335.736 365.457 333.734C365.457 332.67 364.995 331.942 363.805 331.942C362.685 331.942 362.083 332.726 362.041 333.874H360.501C360.557 331.662 361.985 330.584 363.791 330.584C365.863 330.584 367.039 331.83 367.039 333.664C367.039 336.142 364.519 338.032 362.881 339.53H367.319V340.86H360.515ZM368.595 340.86V339.698C371.003 337.584 373.537 335.736 373.537 333.734C373.537 332.67 373.075 331.942 371.885 331.942C370.765 331.942 370.163 332.726 370.121 333.874H368.581C368.637 331.662 370.065 330.584 371.871 330.584C373.943 330.584 375.119 331.83 375.119 333.664C375.119 336.142 372.599 338.032 370.961 339.53H375.399V340.86H368.595ZM376.801 335.764C376.801 332.852 377.585 330.612 380.441 330.612C383.297 330.612 384.081 332.852 384.081 335.764C384.081 338.732 383.297 340.972 380.441 340.972C377.585 340.972 376.801 338.732 376.801 335.764ZM382.513 335.764C382.513 333.86 382.303 332.068 380.441 332.068C378.579 332.068 378.369 333.86 378.369 335.764C378.369 337.766 378.579 339.516 380.441 339.516C382.303 339.516 382.513 337.766 382.513 335.764Z" fill="#FF2569"/>
<path d="M407.606 338.186C407.606 338.671 407.48 339.129 407.228 339.558C406.985 339.978 406.621 340.328 406.136 340.608C405.66 340.879 405.095 341.037 404.442 341.084V342.218H403.546V341.07C402.613 340.986 401.861 340.706 401.292 340.23C400.723 339.745 400.429 339.091 400.41 338.27H402.51C402.566 338.942 402.911 339.348 403.546 339.488V336.814C402.874 336.646 402.333 336.478 401.922 336.31C401.511 336.142 401.157 335.871 400.858 335.498C400.559 335.125 400.41 334.616 400.41 333.972C400.41 333.16 400.699 332.497 401.278 331.984C401.866 331.471 402.622 331.177 403.546 331.102V329.968H404.442V331.102C405.338 331.177 406.052 331.447 406.584 331.914C407.125 332.381 407.429 333.025 407.494 333.846H405.38C405.352 333.575 405.254 333.342 405.086 333.146C404.927 332.941 404.713 332.796 404.442 332.712V335.358C405.142 335.535 405.693 335.708 406.094 335.876C406.505 336.035 406.859 336.301 407.158 336.674C407.457 337.038 407.606 337.542 407.606 338.186ZM402.454 333.874C402.454 334.182 402.547 334.434 402.734 334.63C402.921 334.817 403.191 334.971 403.546 335.092V332.67C403.21 332.717 402.944 332.843 402.748 333.048C402.552 333.253 402.454 333.529 402.454 333.874ZM404.442 339.516C404.797 339.451 405.072 339.306 405.268 339.082C405.473 338.858 405.576 338.587 405.576 338.27C405.576 337.962 405.478 337.715 405.282 337.528C405.086 337.341 404.806 337.187 404.442 337.066V339.516ZM409.332 332.6V330.794H412.706V341H410.69V332.6H409.332ZM415.258 338.788C416.154 338.041 416.868 337.421 417.4 336.926C417.932 336.422 418.376 335.899 418.73 335.358C419.085 334.817 419.262 334.285 419.262 333.762C419.262 333.286 419.15 332.913 418.926 332.642C418.702 332.371 418.357 332.236 417.89 332.236C417.424 332.236 417.064 332.395 416.812 332.712C416.56 333.02 416.43 333.445 416.42 333.986H414.516C414.554 332.866 414.885 332.017 415.51 331.438C416.145 330.859 416.948 330.57 417.918 330.57C418.982 330.57 419.799 330.855 420.368 331.424C420.938 331.984 421.222 332.726 421.222 333.65C421.222 334.378 421.026 335.073 420.634 335.736C420.242 336.399 419.794 336.977 419.29 337.472C418.786 337.957 418.128 338.545 417.316 339.236H421.446V340.86H414.53V339.404L415.258 338.788ZM429.541 332.488H425.005V334.882C425.201 334.639 425.481 334.443 425.845 334.294C426.209 334.135 426.597 334.056 427.007 334.056C427.754 334.056 428.365 334.219 428.841 334.546C429.317 334.873 429.663 335.293 429.877 335.806C430.092 336.31 430.199 336.851 430.199 337.43C430.199 338.503 429.891 339.367 429.275 340.02C428.669 340.673 427.801 341 426.671 341C425.607 341 424.758 340.734 424.123 340.202C423.489 339.67 423.129 338.975 423.045 338.116H424.949C425.033 338.489 425.22 338.788 425.509 339.012C425.808 339.236 426.186 339.348 426.643 339.348C427.194 339.348 427.609 339.175 427.889 338.83C428.169 338.485 428.309 338.027 428.309 337.458C428.309 336.879 428.165 336.441 427.875 336.142C427.595 335.834 427.18 335.68 426.629 335.68C426.237 335.68 425.911 335.778 425.649 335.974C425.388 336.17 425.201 336.431 425.089 336.758H423.213V330.766H429.541V332.488ZM431.691 335.764C431.691 334.149 431.981 332.885 432.559 331.97C433.147 331.055 434.118 330.598 435.471 330.598C436.825 330.598 437.791 331.055 438.369 331.97C438.957 332.885 439.251 334.149 439.251 335.764C439.251 337.388 438.957 338.662 438.369 339.586C437.791 340.51 436.825 340.972 435.471 340.972C434.118 340.972 433.147 340.51 432.559 339.586C431.981 338.662 431.691 337.388 431.691 335.764ZM437.319 335.764C437.319 335.073 437.273 334.495 437.179 334.028C437.095 333.552 436.918 333.165 436.647 332.866C436.386 332.567 435.994 332.418 435.471 332.418C434.949 332.418 434.552 332.567 434.281 332.866C434.02 333.165 433.843 333.552 433.749 334.028C433.665 334.495 433.623 335.073 433.623 335.764C433.623 336.473 433.665 337.071 433.749 337.556C433.833 338.032 434.011 338.419 434.281 338.718C434.552 339.007 434.949 339.152 435.471 339.152C435.994 339.152 436.391 339.007 436.661 338.718C436.932 338.419 437.109 338.032 437.193 337.556C437.277 337.071 437.319 336.473 437.319 335.764Z" fill="#00C7AF"/>
<rect x="225" y="334" width="70" height="7" rx="3.5" fill="#B3B3B3"/>
<rect x="225" y="319" width="50" height="7" rx="3.5" fill="#00C7AF"/>
<rect x="192" y="159" width="70" height="29" rx="14.5" fill="#00C7AF"/>
<circle cx="246.5" cy="173.5" r="9.5" fill="#FBFBFB"/>
<rect x="376" y="159" width="70" height="29" rx="14.5" fill="#B3B3B3"/>
<circle cx="393.5" cy="173.5" r="9.5" fill="#FBFBFB"/>
<rect x="284" y="159" width="70" height="29" rx="14.5" fill="#B3B3B3"/>
<circle cx="301.5" cy="173.5" r="9.5" fill="#FBFBFB"/>
<path d="M200.8 202.2V206.6H205.2V202.2H200.8ZM207.4 202.2V206.6H211.8V202.2H207.4ZM207.4 208.8V213.2H211.8V208.8H207.4ZM207.4 215.4V219.8H211.8V215.4H207.4ZM205.2 219.8V215.4H200.8V219.8H205.2ZM198.6 219.8V215.4H194.2V219.8H198.6ZM198.6 213.2V208.8H194.2V213.2H198.6ZM198.6 206.6V202.2H194.2V206.6H198.6ZM200.8 213.2H205.2V208.8H200.8V213.2ZM194.2 200H211.8C213.01 200 214 200.99 214 202.2V219.8C214 221.01 213.01 222 211.8 222H194.2C193.012 222 192 221.01 192 219.8V202.2C192 200.99 192.99 200 194.2 200Z" fill="#00C7AF"/>
<rect x="222" y="201" width="27" height="4" rx="2" fill="#B3B3B3"/>
<rect x="222" y="209" width="27" height="4" rx="2" fill="#B3B3B3"/>
<rect x="222" y="217" width="16.6765" height="4" rx="2" fill="#B3B3B3"/>
<path d="M192.37 147.51C192.37 145.43 193.96 143.96 195.92 143.96C197.37 143.96 198.62 144.69 199.15 146.05H197.78C197.41 145.31 196.75 144.96 195.92 144.96C194.54 144.96 193.54 145.94 193.54 147.51C193.54 149.08 194.54 150.07 195.92 150.07C196.75 150.07 197.41 149.72 197.78 148.98H199.15C198.62 150.34 197.37 151.06 195.92 151.06C193.96 151.06 192.37 149.6 192.37 147.51ZM205.734 148.24C205.734 149.97 204.454 151.09 202.874 151.09C201.304 151.09 200.114 149.97 200.114 148.24C200.114 146.51 201.354 145.4 202.924 145.4C204.494 145.4 205.734 146.51 205.734 148.24ZM201.274 148.24C201.274 149.49 202.014 150.1 202.874 150.1C203.724 150.1 204.564 149.49 204.564 148.24C204.564 146.99 203.754 146.39 202.904 146.39C202.044 146.39 201.274 146.99 201.274 148.24ZM201.744 144.17L203.954 142.95V143.92L201.744 145.01V144.17ZM206.481 148.22C206.481 146.52 207.631 145.4 209.091 145.4C209.811 145.4 210.571 145.74 210.991 146.26V143.6H212.141V151H210.991V150.17C210.641 150.67 209.981 151.09 209.081 151.09C207.631 151.09 206.481 149.92 206.481 148.22ZM210.991 148.24C210.991 147.06 210.181 146.39 209.321 146.39C208.471 146.39 207.651 147.03 207.651 148.22C207.651 149.41 208.471 150.1 209.321 150.1C210.181 150.1 210.991 149.43 210.991 148.24ZM214.819 150.34C214.819 150.75 214.499 151.07 214.099 151.07C213.689 151.07 213.369 150.75 213.369 150.34C213.369 149.93 213.689 149.61 214.099 149.61C214.499 149.61 214.819 149.93 214.819 150.34ZM219.788 146.31C220.148 145.81 220.838 145.4 221.708 145.4C223.168 145.4 224.298 146.52 224.298 148.22C224.298 149.92 223.158 151.09 221.708 151.09C220.798 151.09 220.148 150.68 219.788 150.2V151H218.648V143.6H219.788V146.31ZM223.138 148.22C223.138 147.03 222.318 146.39 221.458 146.39C220.608 146.39 219.788 147.06 219.788 148.24C219.788 149.43 220.608 150.1 221.458 150.1C222.318 150.1 223.138 149.41 223.138 148.22ZM225.046 148.22C225.046 146.52 226.196 145.4 227.646 145.4C228.576 145.4 229.216 145.84 229.556 146.29V145.49H230.706V151H229.556V150.18C229.206 150.65 228.546 151.09 227.626 151.09C226.196 151.09 225.046 149.92 225.046 148.22ZM229.556 148.24C229.556 147.06 228.746 146.39 227.886 146.39C227.036 146.39 226.216 147.03 226.216 148.22C226.216 149.41 227.036 150.1 227.886 150.1C228.746 150.1 229.556 149.43 229.556 148.24ZM233.343 148.1V151H232.203V145.49H233.343V146.29C233.663 145.74 234.213 145.4 234.993 145.4V146.58H234.703C233.863 146.58 233.343 146.93 233.343 148.1ZM237.181 148.1V151H236.041V145.49H237.181V146.29C237.501 145.74 238.051 145.4 238.831 145.4V146.58H238.541C237.701 146.58 237.181 146.93 237.181 148.1ZM239.499 148.22C239.499 146.52 240.649 145.4 242.099 145.4C243.029 145.4 243.669 145.84 244.009 146.29V145.49H245.159V151H244.009V150.18C243.659 150.65 242.999 151.09 242.079 151.09C240.649 151.09 239.499 149.92 239.499 148.22ZM244.009 148.24C244.009 147.06 243.199 146.39 242.339 146.39C241.489 146.39 240.669 147.03 240.669 148.22C240.669 149.41 241.489 150.1 242.339 150.1C243.199 150.1 244.009 149.43 244.009 148.24ZM250.766 149.46C250.766 150.39 249.956 151.09 248.656 151.09C247.336 151.09 246.406 150.31 246.356 149.31H247.536C247.576 149.76 248.006 150.13 248.636 150.13C249.296 150.13 249.646 149.85 249.646 149.47C249.646 148.39 246.446 149.01 246.446 146.99C246.446 146.11 247.266 145.4 248.566 145.4C249.816 145.4 250.636 146.07 250.696 147.17H249.556C249.516 146.69 249.146 146.36 248.526 146.36C247.916 146.36 247.596 146.61 247.596 146.98C247.596 148.09 250.706 147.47 250.766 149.46Z" fill="#676767"/>
<path d="M276.75 144.05H277.89V150.08H280.24V151H276.75V144.05ZM281.193 151V145.49H282.333V151H281.193ZM281.773 144.76C281.363 144.76 281.043 144.44 281.043 144.03C281.043 143.62 281.363 143.3 281.773 143.3C282.173 143.3 282.493 143.62 282.493 144.03C282.493 144.44 282.173 144.76 281.773 144.76ZM287.94 149.46C287.94 150.39 287.13 151.09 285.83 151.09C284.51 151.09 283.58 150.31 283.53 149.31H284.71C284.75 149.76 285.18 150.13 285.81 150.13C286.47 150.13 286.82 149.85 286.82 149.47C286.82 148.39 283.62 149.01 283.62 146.99C283.62 146.11 284.44 145.4 285.74 145.4C286.99 145.4 287.81 146.07 287.87 147.17H286.73C286.69 146.69 286.32 146.36 285.7 146.36C285.09 146.36 284.77 146.61 284.77 146.98C284.77 148.09 287.88 147.47 287.94 149.46ZM289.352 149.47V146.42H288.702V145.49H289.352V144.12H290.502V145.49H291.842V146.42H290.502V149.47C290.502 149.88 290.662 150.05 291.142 150.05H291.842V151H290.942C289.962 151 289.352 150.59 289.352 149.47ZM292.513 148.22C292.513 146.52 293.663 145.4 295.113 145.4C296.043 145.4 296.683 145.84 297.023 146.29V145.49H298.173V151H297.023V150.18C296.673 150.65 296.013 151.09 295.093 151.09C293.663 151.09 292.513 149.92 292.513 148.22ZM297.023 148.24C297.023 147.06 296.213 146.39 295.353 146.39C294.503 146.39 293.683 147.03 293.683 148.22C293.683 149.41 294.503 150.1 295.353 150.1C296.213 150.1 297.023 149.43 297.023 148.24ZM303.78 149.46C303.78 150.39 302.97 151.09 301.67 151.09C300.35 151.09 299.42 150.31 299.37 149.31H300.55C300.59 149.76 301.02 150.13 301.65 150.13C302.31 150.13 302.66 149.85 302.66 149.47C302.66 148.39 299.46 149.01 299.46 146.99C299.46 146.11 300.28 145.4 301.58 145.4C302.83 145.4 303.65 146.07 303.71 147.17H302.57C302.53 146.69 302.16 146.36 301.54 146.36C300.93 146.36 300.61 146.61 300.61 146.98C300.61 148.09 303.72 147.47 303.78 149.46ZM307.229 148.22C307.229 146.52 308.379 145.4 309.839 145.4C310.559 145.4 311.319 145.74 311.739 146.26V143.6H312.889V151H311.739V150.17C311.389 150.67 310.729 151.09 309.829 151.09C308.379 151.09 307.229 149.92 307.229 148.22ZM311.739 148.24C311.739 147.06 310.929 146.39 310.069 146.39C309.219 146.39 308.399 147.03 308.399 148.22C308.399 149.41 309.219 150.1 310.069 150.1C310.929 150.1 311.739 149.43 311.739 148.24ZM316.707 146.36C315.937 146.36 315.317 146.88 315.197 147.75H318.247C318.227 146.9 317.557 146.36 316.707 146.36ZM319.287 149.36C318.977 150.32 318.107 151.09 316.757 151.09C315.177 151.09 314.007 149.97 314.007 148.24C314.007 146.51 315.127 145.4 316.757 145.4C318.327 145.4 319.437 146.49 319.437 148.11C319.437 148.3 319.427 148.48 319.397 148.67H315.187C315.267 149.58 315.917 150.13 316.757 150.13C317.457 150.13 317.847 149.79 318.057 149.36H319.287ZM324.296 146.3C324.646 145.84 325.316 145.4 326.216 145.4C327.666 145.4 328.806 146.52 328.806 148.22C328.806 149.92 327.666 151.09 326.216 151.09C325.306 151.09 324.656 150.63 324.296 150.2V153.62H323.156V145.49H324.296V146.3ZM327.646 148.22C327.646 147.03 326.826 146.39 325.966 146.39C325.116 146.39 324.296 147.06 324.296 148.24C324.296 149.43 325.116 150.1 325.966 150.1C326.826 150.1 327.646 149.41 327.646 148.22ZM331.074 148.1V151H329.934V145.49H331.074V146.29C331.394 145.74 331.944 145.4 332.724 145.4V146.58H332.434C331.594 146.58 331.074 146.93 331.074 148.1ZM336.091 146.36C335.321 146.36 334.701 146.88 334.581 147.75H337.631C337.611 146.9 336.941 146.36 336.091 146.36ZM338.671 149.36C338.361 150.32 337.491 151.09 336.141 151.09C334.561 151.09 333.391 149.97 333.391 148.24C333.391 146.51 334.511 145.4 336.141 145.4C337.711 145.4 338.821 146.49 338.821 148.11C338.821 148.3 338.811 148.48 338.781 148.67H334.571C334.651 149.58 335.301 150.13 336.141 150.13C336.841 150.13 337.231 149.79 337.441 149.36H338.671ZM339.563 148.24C339.563 146.52 340.683 145.4 342.263 145.4C343.613 145.4 344.493 146.07 344.803 147.23H343.573C343.383 146.7 342.943 146.36 342.263 146.36C341.343 146.36 340.733 147.04 340.733 148.24C340.733 149.45 341.343 150.13 342.263 150.13C342.943 150.13 343.363 149.83 343.573 149.26H344.803C344.493 150.34 343.613 151.09 342.263 151.09C340.683 151.09 339.563 149.97 339.563 148.24ZM345.939 151V145.49H347.079V151H345.939ZM346.519 144.76C346.109 144.76 345.789 144.44 345.789 144.03C345.789 143.62 346.109 143.3 346.519 143.3C346.919 143.3 347.239 143.62 347.239 144.03C347.239 144.44 346.919 144.76 346.519 144.76ZM353.826 148.24C353.826 149.97 352.546 151.09 350.966 151.09C349.396 151.09 348.206 149.97 348.206 148.24C348.206 146.51 349.446 145.4 351.016 145.4C352.586 145.4 353.826 146.51 353.826 148.24ZM349.366 148.24C349.366 149.49 350.106 150.1 350.966 150.1C351.816 150.1 352.656 149.49 352.656 148.24C352.656 146.99 351.846 146.39 350.996 146.39C350.136 146.39 349.366 146.99 349.366 148.24ZM359.063 149.46C359.063 150.39 358.253 151.09 356.953 151.09C355.633 151.09 354.703 150.31 354.653 149.31H355.833C355.873 149.76 356.303 150.13 356.933 150.13C357.593 150.13 357.943 149.85 357.943 149.47C357.943 148.39 354.743 149.01 354.743 146.99C354.743 146.11 355.563 145.4 356.863 145.4C358.113 145.4 358.933 146.07 358.993 147.17H357.853C357.813 146.69 357.443 146.36 356.823 146.36C356.213 146.36 355.893 146.61 355.893 146.98C355.893 148.09 359.003 147.47 359.063 149.46Z" fill="#676767"/>
<path d="M386.59 144.04V144.97H383.89V147.01H386.29V147.94H383.89V150.07H386.59V151H382.75V144.04H386.59ZM390.844 151L389.654 149.13L388.534 151H387.344L389.124 148.29L387.344 145.49H388.634L389.824 147.36L390.944 145.49H392.134L390.354 148.21L392.134 151H390.844ZM392.604 148.24C392.604 146.52 393.724 145.4 395.304 145.4C396.654 145.4 397.534 146.07 397.844 147.23H396.614C396.424 146.7 395.984 146.36 395.304 146.36C394.384 146.36 393.774 147.04 393.774 148.24C393.774 149.45 394.384 150.13 395.304 150.13C395.984 150.13 396.404 149.83 396.614 149.26H397.844C397.534 150.34 396.654 151.09 395.304 151.09C393.724 151.09 392.604 149.97 392.604 148.24ZM398.98 151V143.6H400.12V151H398.98ZM406.607 145.49V151H405.467V150.34C405.107 150.81 404.487 151.08 403.837 151.08C402.547 151.08 401.567 150.27 401.567 148.73V145.49H402.697V148.56C402.697 149.57 403.247 150.09 404.077 150.09C404.917 150.09 405.467 149.57 405.467 148.56V145.49H406.607ZM408.111 151V145.49H409.251V151H408.111ZM408.691 144.76C408.281 144.76 407.961 144.44 407.961 144.03C407.961 143.62 408.281 143.3 408.691 143.3C409.091 143.3 409.411 143.62 409.411 144.03C409.411 144.44 409.091 144.76 408.691 144.76ZM411.888 148.1V151H410.748V145.49H411.888V146.29C412.208 145.74 412.758 145.4 413.538 145.4V146.58H413.248C412.408 146.58 411.888 146.93 411.888 148.1ZM417.184 151V145.49H418.324V151H417.184ZM417.764 144.76C417.354 144.76 417.034 144.44 417.034 144.03C417.034 143.62 417.354 143.3 417.764 143.3C418.164 143.3 418.484 143.62 418.484 144.03C418.484 144.44 418.164 144.76 417.764 144.76ZM427.63 151V147.92C427.63 146.91 427.08 146.39 426.25 146.39C425.41 146.39 424.86 146.91 424.86 147.92V151H423.73V147.92C423.73 146.91 423.18 146.39 422.35 146.39C421.51 146.39 420.96 146.91 420.96 147.92V151H419.82V145.49H420.96V146.12C421.33 145.67 421.93 145.4 422.59 145.4C423.46 145.4 424.19 145.77 424.57 146.49C424.91 145.82 425.69 145.4 426.49 145.4C427.78 145.4 428.76 146.21 428.76 147.75V151H427.63ZM431.351 146.3C431.701 145.84 432.371 145.4 433.271 145.4C434.721 145.4 435.861 146.52 435.861 148.22C435.861 149.92 434.721 151.09 433.271 151.09C432.361 151.09 431.711 150.63 431.351 150.2V153.62H430.211V145.49H431.351V146.3ZM434.701 148.22C434.701 147.03 433.881 146.39 433.021 146.39C432.171 146.39 431.351 147.06 431.351 148.24C431.351 149.43 432.171 150.1 433.021 150.1C433.881 150.1 434.701 149.41 434.701 148.22ZM438.168 150.34C438.168 150.75 437.848 151.07 437.448 151.07C437.038 151.07 436.718 150.75 436.718 150.34C436.718 149.93 437.038 149.61 437.448 149.61C437.848 149.61 438.168 149.93 438.168 150.34Z" fill="#676767"/>
<defs>
<filter id="filter0_d_1265_2200" x="23" y="17" width="140" height="185" filterUnits="userSpaceOnUse" color-interpolation-filters="sRGB">
<feFlood flood-opacity="0" result="BackgroundImageFix"/>
<feColorMatrix in="SourceAlpha" type="matrix" values="0 0 0 0 0 0 0 0 0 0 0 0 0 0 0 0 0 0 127 0" result="hardAlpha"/>
<feOffset dy="4"/>
<feGaussianBlur stdDeviation="5"/>
<feComposite in2="hardAlpha" operator="out"/>
<feColorMatrix type="matrix" values="0 0 0 0 0 0 0 0 0 0 0 0 0 0 0 0 0 0 0.2 0"/>
<feBlend mode="normal" in2="BackgroundImageFix" result="effect1_dropShadow_1265_2200"/>
<feBlend mode="normal" in="SourceGraphic" in2="effect1_dropShadow_1265_2200" result="shape"/>
</filter>
<filter id="filter1_d_1265_2200" x="23" y="197" width="140" height="185" filterUnits="userSpaceOnUse" color-interpolation-filters="sRGB">
<feFlood flood-opacity="0" result="BackgroundImageFix"/>
<feColorMatrix in="SourceAlpha" type="matrix" values="0 0 0 0 0 0 0 0 0 0 0 0 0 0 0 0 0 0 127 0" result="hardAlpha"/>
<feOffset dy="4"/>
<feGaussianBlur stdDeviation="5"/>
<feComposite in2="hardAlpha" operator="out"/>
<feColorMatrix type="matrix" values="0 0 0 0 0 0 0 0 0 0 0 0 0 0 0 0 0 0 0.2 0"/>
<feBlend mode="normal" in2="BackgroundImageFix" result="effect1_dropShadow_1265_2200"/>
<feBlend mode="normal" in="SourceGraphic" in2="effect1_dropShadow_1265_2200" result="shape"/>
</filter>
<filter id="filter2_d_1265_2200" x="160" y="17" width="315" height="364.559" filterUnits="userSpaceOnUse" color-interpolation-filters="sRGB">
<feFlood flood-opacity="0" result="BackgroundImageFix"/>
<feColorMatrix in="SourceAlpha" type="matrix" values="0 0 0 0 0 0 0 0 0 0 0 0 0 0 0 0 0 0 127 0" result="hardAlpha"/>
<feOffset dy="4"/>
<feGaussianBlur stdDeviation="5"/>
<feComposite in2="hardAlpha" operator="out"/>
<feColorMatrix type="matrix" values="0 0 0 0 0 0 0 0 0 0 0 0 0 0 0 0 0 0 0.2 0"/>
<feBlend mode="normal" in2="BackgroundImageFix" result="effect1_dropShadow_1265_2200"/>
<feBlend mode="normal" in="SourceGraphic" in2="effect1_dropShadow_1265_2200" result="shape"/>
</filter>
</defs>
</svg>
